<?xml version="1.0" encoding="utf-8"?>
<!-- Generator: Adobe Illustrator 16.0.0, SVG Export Plug-In . SVG Version: 6.00 Build 0)  -->
<!DOCTYPE svg PUBLIC "-//W3C//DTD SVG 1.1//EN" "http://www.w3.org/Graphics/SVG/1.1/DTD/svg11.dtd">
<svg version="1.1" id="Layer_1" xmlns="http://www.w3.org/2000/svg" xmlns:xlink="http://www.w3.org/1999/xlink" x="0px" y="0px"
	 width="32px" height="32.003px" viewBox="1 -927.026 32 32.003" enable-background="new 1 -927.026 32 32.003"
	 xml:space="preserve">
<g id="Shape_76_2_">
	<g>
		<path fill="#302B2A" d="M15.5-905.023c4.137,0,7.5-4.094,7.5-9.126s-3.363-9.125-7.5-9.125c-2.046,0-3.956,0.979-5.378,2.755
			c-1.369,1.712-2.123,3.976-2.122,6.37C8-909.117,11.364-905.023,15.5-905.023z M15.5-921.274c3.032,0,5.5,3.197,5.5,7.125
			c0,3.931-2.468,7.126-5.5,7.126s-5.5-3.197-5.502-7.126C9.998-918.077,12.466-921.274,15.5-921.274z M21.799-906.023
			c-0.553,0-1,0.447-1,1c0,0.552,0.447,1,1,1c3.419,0,6.201,2.781,6.201,6.2c0,0.439-0.359,0.8-0.801,0.8h-23.4
			c-0.44,0-0.799-0.357-0.799-0.8c0-3.419,2.781-6.2,6.199-6.2c0.553,0,1-0.448,1-1c0-0.553-0.447-1-1-1
			c-4.521,0-8.199,3.678-8.199,8.2c0,1.544,1.256,2.8,2.799,2.8h20.25h3.15c1.544,0,2.801-1.256,2.801-2.8
			C30-902.344,26.32-906.023,21.799-906.023z M16.231-924.385c0.716-0.426,1.479-0.64,2.269-0.64c3.032,0,5.5,3.196,5.5,7.124
			c0,0.705-0.078,1.396-0.232,2.059c-0.127,0.538,0.207,1.074,0.744,1.2c0.077,0.021,0.153,0.026,0.229,0.026
			c0.454,0,0.864-0.312,0.973-0.771c0.188-0.813,0.286-1.654,0.286-2.516c0-5.03-3.363-9.125-7.5-9.125
			c-1.137,0-2.272,0.317-3.286,0.917c-0.476,0.281-0.633,0.896-0.352,1.37C15.143-924.262,15.758-924.104,16.231-924.385z
			 M25-910.024c-0.553,0-1,0.448-1,1.001c0,0.552,0.447,0.999,1,0.999c3.419,0,6,2.851,6,6.27c0,0.112-0.021,0.226-0.068,0.324
			c-0.224,0.507,0.004,1.098,0.508,1.32c0.133,0.061,0.271,0.086,0.406,0.086c0.383,0,0.748-0.221,0.914-0.594
			c0.159-0.359,0.24-0.742,0.24-1.14C33-906.278,29.521-910.024,25-910.024z"/>
	</g>
</g>
</svg>
