<?xml version="1.0" encoding="utf-8"?>
<!-- Generator: Adobe Illustrator 16.0.4, SVG Export Plug-In . SVG Version: 6.00 Build 0)  -->
<!DOCTYPE svg PUBLIC "-//W3C//DTD SVG 1.1//EN" "http://www.w3.org/Graphics/SVG/1.1/DTD/svg11.dtd">
<svg version="1.1" id="Layer_1" xmlns="http://www.w3.org/2000/svg" xmlns:xlink="http://www.w3.org/1999/xlink" x="0px" y="0px"
	 width="32px" height="32px" viewBox="0 0 32 32" enable-background="new 0 0 32 32" xml:space="preserve">
<g id="Mail_x5F_1_2_">
	<g>
		<path fill="#302B2A" d="M31.121,0.879C30.555,0.313,29.801,0,29,0H3C2.199,0,1.446,0.313,0.879,0.879C0.313,1.447,0,2.199,0,3v26
			c0,0.205,0.021,0.404,0.062,0.601c0.008,0.037,0.022,0.069,0.031,0.104c0.037,0.156,0.08,0.312,0.144,0.461
			c0.007,0.015,0.016,0.025,0.021,0.041c0.147,0.336,0.354,0.646,0.621,0.916c0.129,0.129,0.271,0.238,0.417,0.342
			c0.011,0.008,0.02,0.02,0.028,0.021c0.139,0.096,0.287,0.172,0.439,0.236c0.023,0.014,0.047,0.027,0.071,0.039
			c0.145,0.062,0.294,0.104,0.446,0.141c0.04,0.012,0.077,0.026,0.118,0.035C2.593,31.976,2.794,32,2.998,32H29
			c0.203,0,0.402-0.021,0.6-0.062c0.041-0.009,0.078-0.023,0.119-0.035c0.15-0.035,0.301-0.076,0.445-0.141
			c0.025-0.012,0.049-0.025,0.074-0.041c0.15-0.066,0.299-0.143,0.438-0.234c0.01-0.008,0.018-0.018,0.027-0.021
			c0.146-0.104,0.289-0.213,0.418-0.342c0.266-0.268,0.469-0.575,0.617-0.909c0.008-0.019,0.02-0.031,0.025-0.048
			c0.062-0.146,0.104-0.305,0.143-0.459c0.01-0.036,0.023-0.069,0.031-0.105C31.977,29.408,32,29.205,32,29V3
			C32,2.199,31.688,1.447,31.121,0.879z M2,6.243L11.758,16L2,25.761V6.243z M29.922,29.388c-0.049,0.118-0.121,0.229-0.215,0.319
			c-0.094,0.095-0.203,0.166-0.32,0.215C29.268,29.973,29.137,30,29,30H3c-0.137,0-0.268-0.027-0.386-0.078
			c-0.118-0.049-0.229-0.12-0.321-0.215c-0.094-0.094-0.165-0.201-0.215-0.319C2.028,29.27,2,29.138,2,29
			c0-0.266,0.104-0.516,0.289-0.7l10.883-10.886l0.707,0.707C14.445,18.686,15.199,19,16,19s1.555-0.312,2.121-0.879l0.707-0.707
			L29.711,28.3C29.898,28.488,30,28.738,30,29C30,29.138,29.973,29.27,29.922,29.388z M30,25.759L20.242,16L30,6.241V25.759z
			 M29.711,3.702L16.707,16.707c-0.379,0.379-1.035,0.379-1.414,0L2.289,3.702C2.104,3.517,2,3.267,2,3
			c0-0.269,0.104-0.52,0.293-0.706C2.482,2.107,2.733,2,3,2h26c0.268,0,0.518,0.104,0.707,0.294C29.896,2.483,30,2.733,30,3
			C30,3.267,29.896,3.517,29.711,3.702z"/>
	</g>
</g>
</svg>
