<?xml version="1.0" encoding="utf-8"?>
<!-- Generator: Adobe Illustrator 16.0.4, SVG Export Plug-In . SVG Version: 6.00 Build 0)  -->
<!DOCTYPE svg PUBLIC "-//W3C//DTD SVG 1.1//EN" "http://www.w3.org/Graphics/SVG/1.1/DTD/svg11.dtd">
<svg version="1.1" id="Layer_1" xmlns="http://www.w3.org/2000/svg" xmlns:xlink="http://www.w3.org/1999/xlink" x="0px" y="0px"
	 width="38.671px" height="34px" viewBox="0 0 38.671 34" enable-background="new 0 0 38.671 34" xml:space="preserve">
<path d="M17.684,32H2V2h15.684c0.553,0,1-0.445,1-1c0-0.553-0.447-1-1-1H1C0.447,0,0,0.447,0,1v32c0,0.555,0.445,1,1,1h16.684
	c0.553,0,1-0.445,1-1C18.684,32.449,18.237,32,17.684,32z"/>
<path d="M38.669,16.995c0.002-0.259-0.096-0.517-0.291-0.713c-0.008-0.009-0.021-0.011-0.025-0.019L27.382,5.294
	c-0.391-0.392-1.023-0.392-1.414,0c-0.391,0.394-0.391,1.022,0,1.414l9.289,9.289H5.671c-0.553,0-1,0.448-1,1c0,0.555,0.447,1,1,1
	h29.577l-9.279,9.282c-0.391,0.392-0.391,1.021,0,1.414c0.195,0.191,0.451,0.293,0.707,0.293s0.512-0.102,0.707-0.293l10.969-10.971
	c0.104-0.101,0.188-0.211,0.242-0.347c0.053-0.118,0.078-0.249,0.078-0.38l0,0L38.669,16.995z"/>
</svg>
