<?xml version="1.0" encoding="utf-8"?>
<!-- Generator: Adobe Illustrator 16.0.0, SVG Export Plug-In . SVG Version: 6.00 Build 0)  -->
<!DOCTYPE svg PUBLIC "-//W3C//DTD SVG 1.1//EN" "http://www.w3.org/Graphics/SVG/1.1/DTD/svg11.dtd">
<svg version="1.1" id="Layer_1" xmlns="http://www.w3.org/2000/svg" xmlns:xlink="http://www.w3.org/1999/xlink" x="0px" y="0px"
	 width="34px" height="34px" viewBox="0 850.219 34 34" enable-background="new 0 850.219 34 34" xml:space="preserve">
<g>
	<g>
		<path fill="#302B2A" d="M24,866.219h-6v-6c0-0.551-0.447-1-1-1s-1,0.449-1,1v6h-6c-0.553,0-1,0.449-1,1c0,0.553,0.447,1,1,1h6v6
			c0,0.553,0.447,1,1,1s1-0.447,1-1v-6h6c0.553,0,1-0.447,1-1C25,866.668,24.553,866.219,24,866.219z"/>
	</g>
	<g>
		<path fill="#302B2A" d="M17,884.219c-9.374,0-17-7.626-17-17s7.626-17,17-17s17,7.626,17,17S26.374,884.219,17,884.219z
			 M17,852.219c-8.271,0-15,6.729-15,15c0,8.271,6.729,15,15,15c8.271,0,15-6.729,15-15C32,858.948,25.271,852.219,17,852.219z"/>
	</g>
</g>
</svg>
