<?xml version="1.0" encoding="utf-8"?>
<!-- Generator: Adobe Illustrator 16.0.0, SVG Export Plug-In . SVG Version: 6.00 Build 0)  -->
<!DOCTYPE svg PUBLIC "-//W3C//DTD SVG 1.1//EN" "http://www.w3.org/Graphics/SVG/1.1/DTD/svg11.dtd">
<svg version="1.1" id="Layer_1" xmlns="http://www.w3.org/2000/svg" xmlns:xlink="http://www.w3.org/1999/xlink" x="0px" y="0px"
	 width="32px" height="32px" viewBox="1 -621.032 32 32" enable-background="new 1 -621.032 32 32" xml:space="preserve">
<g id="Mail_x5F_1_2_">
	<g>
		<path fill="#302B2A" d="M32.121-620.153c-0.566-0.567-1.32-0.879-2.121-0.879H4c-0.801,0-1.554,0.312-2.121,0.879
			C1.313-619.586,1-618.834,1-618.032v26c0,0.204,0.021,0.404,0.062,0.6c0.008,0.037,0.022,0.069,0.031,0.105
			c0.037,0.156,0.08,0.312,0.144,0.46c0.007,0.015,0.016,0.025,0.021,0.041c0.147,0.336,0.354,0.646,0.621,0.916
			c0.129,0.129,0.271,0.239,0.417,0.342c0.011,0.008,0.02,0.019,0.028,0.022c0.139,0.095,0.287,0.171,0.439,0.236
			c0.023,0.014,0.047,0.028,0.071,0.039c0.145,0.063,0.294,0.104,0.446,0.141c0.04,0.012,0.077,0.026,0.118,0.034
			c0.195,0.039,0.396,0.063,0.6,0.063H30c0.203,0,0.402-0.021,0.6-0.063c0.041-0.008,0.078-0.022,0.119-0.034
			c0.15-0.036,0.301-0.077,0.445-0.141c0.025-0.011,0.049-0.026,0.074-0.041c0.15-0.066,0.299-0.143,0.438-0.234
			c0.01-0.009,0.018-0.018,0.027-0.022c0.146-0.103,0.289-0.213,0.418-0.342c0.266-0.268,0.469-0.575,0.617-0.909
			c0.008-0.018,0.02-0.031,0.025-0.048c0.063-0.146,0.104-0.304,0.143-0.459c0.01-0.036,0.023-0.069,0.031-0.106
			c0.039-0.193,0.063-0.396,0.063-0.6v-26C33-618.834,32.688-619.586,32.121-620.153z M3-614.79l9.758,9.758L3-595.272V-614.79z
			 M30.922-591.645c-0.049,0.118-0.121,0.229-0.215,0.319c-0.094,0.095-0.203,0.166-0.32,0.216c-0.119,0.05-0.25,0.078-0.387,0.078
			H4c-0.137,0-0.268-0.028-0.386-0.078c-0.118-0.05-0.228-0.121-0.321-0.216c-0.094-0.093-0.165-0.201-0.215-0.319
			C3.028-591.763,3-591.895,3-592.032c0-0.267,0.104-0.517,0.289-0.701l10.883-10.885l0.707,0.707
			c0.566,0.564,1.32,0.879,2.121,0.879s1.555-0.313,2.121-0.879l0.707-0.707l10.883,10.885c0.188,0.188,0.289,0.438,0.289,0.701
			C31-591.895,30.973-591.763,30.922-591.645z M31-595.274l-9.758-9.758l9.758-9.76V-595.274z M30.711-617.331l-13.004,13.006
			c-0.379,0.378-1.035,0.378-1.414,0L3.289-617.331C3.104-617.516,3-617.766,3-618.032c0-0.269,0.104-0.52,0.293-0.706
			c0.189-0.188,0.44-0.294,0.707-0.294h26c0.268,0,0.518,0.104,0.707,0.294C30.896-618.55,31-618.3,31-618.032
			C31-617.766,30.896-617.516,30.711-617.331z"/>
	</g>
</g>
</svg>
