<?xml version="1.0" encoding="utf-8"?>
<!-- Generator: Adobe Illustrator 16.0.0, SVG Export Plug-In . SVG Version: 6.00 Build 0)  -->
<!DOCTYPE svg PUBLIC "-//W3C//DTD SVG 1.1//EN" "http://www.w3.org/Graphics/SVG/1.1/DTD/svg11.dtd">
<svg version="1.1" id="Layer_1" xmlns="http://www.w3.org/2000/svg" xmlns:xlink="http://www.w3.org/1999/xlink" x="0px" y="0px"
	 width="32px" height="32px" viewBox="1 -1131.025 32 32" enable-background="new 1 -1131.025 32 32" xml:space="preserve">
<g id="Newspaper_2_">
	<g>
		<path fill="#302B2A" d="M30.25-1131.025h-19.5c-1.517,0-2.75,1.289-2.75,2.875v20.625c0,0.275-0.225,0.5-0.5,0.5
			s-0.5-0.225-0.5-0.5v-14.498c0-0.554-0.469-1.041-1.01-1c-0.113,0.001-2.231,0.01-2.24,0.001c-1.517,0-2.75,1.29-2.75,2.875
			v16.121c0,2.757,2.243,5.001,5,5.001v-0.028c0.271,0.028,0.59,0.028,0.945,0.028H28c2.757,0,5-2.243,5-5v-24.125
			C33-1129.736,31.768-1131.025,30.25-1131.025z M31-1104.025c0,1.654-1.346,3-3,3c0,0-21.805,0-22,0c-1.654,0-3-1.346-3-3.001
			v-16.121c0-0.48,0.337-0.875,0.75-0.875h1.125c0.042,0,0.084,0,0.125,0v13.497c0,1.378,1.121,2.5,2.5,2.5s2.5-1.122,2.5-2.5
			v-20.625c0-0.48,0.337-0.875,0.75-0.875h19.5c0.413,0,0.75,0.395,0.75,0.875V-1104.025z M13-1117.025c0.553,0,1-0.447,1-1v-4.514
			l3.152,5.043c0.033,0.054,0.075,0.098,0.116,0.142c0.013,0.016,0.022,0.03,0.036,0.044c0.082,0.08,0.176,0.142,0.276,0.188
			c0.023,0.012,0.049,0.02,0.072,0.026c0.111,0.041,0.227,0.068,0.345,0.068c0.001,0,0.001,0.001,0.001,0.001H18h0.001
			c0.116,0,0.229-0.028,0.343-0.069c0.033-0.013,0.063-0.022,0.094-0.041c0.03-0.016,0.063-0.021,0.094-0.041
			c0.031-0.021,0.05-0.053,0.078-0.076c0.056-0.043,0.104-0.086,0.147-0.139c0.041-0.05,0.074-0.1,0.104-0.155
			c0.031-0.056,0.057-0.108,0.076-0.172c0.021-0.063,0.033-0.13,0.041-0.197c0.004-0.036,0.021-0.068,0.021-0.106v-8
			c0-0.552-0.446-1-1-1c-0.553,0-1,0.448-1,1v4.515l-3.152-5.044c-0.02-0.03-0.051-0.049-0.073-0.077
			c-0.043-0.056-0.088-0.104-0.142-0.147c-0.049-0.041-0.1-0.074-0.154-0.104c-0.056-0.029-0.111-0.057-0.172-0.074
			c-0.066-0.021-0.132-0.032-0.2-0.041c-0.037-0.006-0.068-0.021-0.106-0.021c-0.026,0-0.049,0.014-0.074,0.016
			c-0.068,0.005-0.132,0.021-0.198,0.041c-0.064,0.02-0.126,0.038-0.185,0.069c-0.024,0.012-0.051,0.013-0.073,0.027
			c-0.032,0.02-0.05,0.052-0.079,0.073c-0.055,0.041-0.104,0.087-0.147,0.141c-0.041,0.05-0.074,0.101-0.104,0.154
			c-0.031,0.057-0.057,0.109-0.077,0.174c-0.021,0.063-0.032,0.13-0.04,0.195c-0.004,0.037-0.021,0.069-0.021,0.107v8
			C12-1117.472,12.447-1117.025,13-1117.025z M21-1104.025h8v-6h-8V-1104.025z M28-1127.025h-6c-0.553,0-1,0.448-1,1
			c0,0.553,0.447,1,1,1h6c0.553,0,1-0.447,1-1C29-1126.577,28.553-1127.025,28-1127.025z M28-1123.025h-6c-0.553,0-1,0.448-1,1
			c0,0.553,0.447,1,1,1h6c0.553,0,1-0.447,1-1C29-1122.577,28.553-1123.025,28-1123.025z M28-1119.025h-6c-0.553,0-1,0.448-1,1
			c0,0.553,0.447,1,1,1h6c0.553,0,1-0.447,1-1C29-1118.577,28.553-1119.025,28-1119.025z M18-1110.025h-5c-0.553,0-1,0.448-1,1
			c0,0.553,0.447,1,1,1h5c0.553,0,1-0.447,1-1C19-1109.577,18.553-1110.025,18-1110.025z M18-1106.025h-5c-0.553,0-1,0.448-1,1
			c0,0.553,0.447,1,1,1h5c0.553,0,1-0.447,1-1C19-1105.577,18.553-1106.025,18-1106.025z M28-1115.025H13c-0.553,0-1,0.448-1,1v1
			c0,0.552,0.447,1,1,1h15c0.553,0,1-0.448,1-1v-1C29-1114.577,28.553-1115.025,28-1115.025z"/>
	</g>
</g>
</svg>
