<?xml version="1.0" encoding="utf-8"?>
<!-- Generator: Adobe Illustrator 16.0.4, SVG Export Plug-In . SVG Version: 6.00 Build 0)  -->
<!DOCTYPE svg PUBLIC "-//W3C//DTD SVG 1.1//EN" "http://www.w3.org/Graphics/SVG/1.1/DTD/svg11.dtd">
<svg version="1.1" id="Layer_1" xmlns="http://www.w3.org/2000/svg" xmlns:xlink="http://www.w3.org/1999/xlink" x="0px" y="0px"
	 width="34px" height="23.986px" viewBox="0 0 34 23.986" enable-background="new 0 0 34 23.986" xml:space="preserve">
<path fill="#FFFFFF" d="M33.999,11.995c0.001-0.259-0.097-0.517-0.292-0.713c-0.008-0.009-0.02-0.011-0.025-0.019L22.711,0.294
	c-0.391-0.392-1.023-0.392-1.414,0c-0.391,0.393-0.391,1.022,0,1.414l9.289,9.289H1c-0.553,0-1,0.448-1,1c0,0.555,0.447,1,1,1
	h29.577l-9.28,9.282c-0.391,0.392-0.391,1.021,0,1.414c0.195,0.193,0.451,0.293,0.707,0.293s0.512-0.1,0.707-0.293l10.969-10.97
	c0.104-0.1,0.188-0.211,0.243-0.346C33.975,12.259,34,12.128,34,11.997l0,0L33.999,11.995z"/>
</svg>
