<?xml version="1.0" encoding="utf-8"?>
<!-- Generator: Adobe Illustrator 16.0.0, SVG Export Plug-In . SVG Version: 6.00 Build 0)  -->
<!DOCTYPE svg PUBLIC "-//W3C//DTD SVG 1.1//EN" "http://www.w3.org/Graphics/SVG/1.1/DTD/svg11.dtd">
<svg version="1.1" id="Layer_1" xmlns="http://www.w3.org/2000/svg" xmlns:xlink="http://www.w3.org/1999/xlink" x="0px" y="0px"
	 width="32.006px" height="32.006px" viewBox="0.996 -1233.027 32.006 32.006"
	 enable-background="new 0.996 -1233.027 32.006 32.006" xml:space="preserve">
<g id="Link_x5F_2_2_">
	<g>
		<path fill="#302B2A" d="M32.708-1232.734c-0.392-0.391-1.022-0.391-1.414,0l-4.396,4.396l-0.988-0.989
			c-0.98-0.982-2.694-0.982-3.678,0l-6.225,6.223c-0.49,0.491-0.761,1.146-0.762,1.838c0,0.695,0.271,1.351,0.762,1.841l0.99,0.988
			l-1.414,1.414l-0.989-0.989c-0.982-0.98-2.696-0.979-3.678-0.001l-6.223,6.226c-1.014,1.015-1.014,2.663,0,3.677l0.99,0.99
			l-4.395,4.394c-0.391,0.393-0.391,1.023,0,1.414c0.195,0.195,0.451,0.293,0.707,0.293s0.512-0.098,0.707-0.293l4.395-4.394
			l0.989,0.988c0.491,0.49,1.146,0.763,1.84,0.763c0.692,0,1.347-0.271,1.838-0.764l6.222-6.224c1.015-1.014,1.015-2.662,0-3.676
			l-0.989-0.99l1.414-1.415l0.989,0.99c0.492,0.491,1.146,0.762,1.84,0.762c0.692,0,1.348-0.271,1.838-0.762l6.224-6.227
			c1.014-1.014,1.014-2.661,0-3.677l-0.99-0.989l4.396-4.394C33.1-1231.71,33.1-1232.343,32.708-1232.734z M16.577-1212.36
			l-6.223,6.225c-0.228,0.228-0.622,0.227-0.85,0l-0.989-0.989l2.368-2.369c0.392-0.393,0.392-1.024,0-1.415
			c-0.391-0.391-1.022-0.391-1.413,0l-2.369,2.37l-0.99-0.989c-0.233-0.234-0.233-0.615,0-0.85l6.223-6.226
			c0.113-0.11,0.265-0.176,0.424-0.176c0.16,0,0.313,0.063,0.426,0.177l0.989,0.99l-2.121,2.121c-0.391,0.391-0.391,1.021,0,1.413
			c0.195,0.193,0.451,0.293,0.707,0.293c0.257,0,0.513-0.1,0.707-0.293l2.121-2.121l0.99,0.99
			C16.812-1212.975,16.812-1212.594,16.577-1212.36z M27.893-1223.673l-6.225,6.224c-0.228,0.226-0.622,0.229-0.849,0l-0.99-0.991
			l2.121-2.12c0.391-0.391,0.391-1.021,0-1.412c-0.391-0.393-1.023-0.393-1.414,0l-2.121,2.119l-0.99-0.988
			c-0.112-0.112-0.176-0.266-0.176-0.427c0-0.157,0.063-0.309,0.176-0.423l6.224-6.223c0.113-0.114,0.267-0.178,0.427-0.178
			c0.159,0,0.312,0.063,0.424,0.177l0.989,0.99l-2.368,2.369c-0.392,0.392-0.392,1.022,0,1.412c0.194,0.195,0.45,0.293,0.707,0.293
			c0.256,0,0.512-0.098,0.707-0.293l2.368-2.368l0.99,0.987C28.124-1224.289,28.124-1223.908,27.893-1223.673z"/>
	</g>
</g>
</svg>
