<?xml version="1.0" encoding="utf-8"?>
<!-- Generator: Adobe Illustrator 16.0.0, SVG Export Plug-In . SVG Version: 6.00 Build 0)  -->
<!DOCTYPE svg PUBLIC "-//W3C//DTD SVG 1.1//EN" "http://www.w3.org/Graphics/SVG/1.1/DTD/svg11.dtd">
<svg version="1.1" id="Layer_1" xmlns="http://www.w3.org/2000/svg" xmlns:xlink="http://www.w3.org/1999/xlink" x="0px" y="0px"
	 width="31.984px" height="31.987px" viewBox="1.007 -1335.01 31.984 31.987" enable-background="new 1.007 -1335.01 31.984 31.987"
	 xml:space="preserve">
<g id="Tools_2_">
	<g>
		<path fill="#302B2A" d="M32.119-1316.188c-1.428-0.185-2.506-1.397-2.506-2.829c0-1.429,1.078-2.646,2.506-2.827
			c0.283-0.037,0.537-0.192,0.699-0.432c0.16-0.237,0.213-0.531,0.142-0.809c-0.388-1.527-0.992-2.987-1.798-4.342
			c-0.146-0.245-0.391-0.418-0.672-0.474c-0.283-0.053-0.572,0.018-0.799,0.191c-1.104,0.852-2.785,0.756-3.771-0.23
			c-1.012-1.01-1.109-2.631-0.23-3.771c0.178-0.229,0.246-0.52,0.191-0.798c-0.054-0.281-0.225-0.526-0.471-0.674
			c-1.352-0.806-2.811-1.407-4.342-1.8c-0.278-0.067-0.571-0.019-0.809,0.145c-0.236,0.16-0.395,0.416-0.431,0.698
			c-0.185,1.429-1.399,2.504-2.83,2.504s-2.646-1.075-2.828-2.503c-0.037-0.283-0.193-0.539-0.43-0.699
			c-0.237-0.16-0.53-0.211-0.809-0.145c-1.531,0.393-2.992,0.994-4.343,1.8c-0.246,0.146-0.417,0.393-0.471,0.674
			c-0.054,0.278,0.017,0.569,0.191,0.798c0.88,1.14,0.782,2.761-0.229,3.771c-0.985,0.984-2.668,1.082-3.772,0.229
			c-0.227-0.176-0.517-0.242-0.799-0.191c-0.281,0.054-0.525,0.228-0.672,0.474c-0.807,1.354-1.411,2.814-1.798,4.343
			c-0.07,0.274-0.018,0.568,0.143,0.808c0.161,0.236,0.416,0.395,0.699,0.432c1.428,0.185,2.504,1.398,2.504,2.827
			c0,1.431-1.076,2.646-2.504,2.829c-0.283,0.036-0.538,0.192-0.699,0.431c-0.16,0.235-0.213,0.529-0.143,0.81
			c0.387,1.525,0.992,2.986,1.798,4.342c0.146,0.246,0.391,0.418,0.672,0.474c0.28,0.052,0.572-0.019,0.798-0.189
			c1.108-0.854,2.789-0.755,3.772,0.229c1.011,1.012,1.109,2.632,0.229,3.771c-0.175,0.229-0.244,0.52-0.19,0.799
			c0.054,0.28,0.226,0.525,0.471,0.673c1.352,0.805,2.813,1.407,4.342,1.799c0.081,0.021,0.164,0.028,0.246,0.028
			c0.198,0,0.395-0.059,0.563-0.173c0.236-0.161,0.393-0.416,0.43-0.698c0.183-1.429,1.398-2.505,2.828-2.505
			c1.429,0,2.646,1.076,2.83,2.505c0.037,0.283,0.193,0.538,0.431,0.698c0.236,0.162,0.529,0.213,0.81,0.145
			c1.528-0.392,2.989-0.994,4.34-1.799c0.244-0.146,0.416-0.392,0.471-0.672s-0.016-0.57-0.189-0.799
			c-0.879-1.142-0.777-2.762,0.229-3.771c0.985-0.984,2.667-1.081,3.771-0.229c0.229,0.176,0.52,0.244,0.799,0.189
			c0.281-0.055,0.525-0.228,0.674-0.473c0.806-1.354,1.408-2.813,1.798-4.343c0.069-0.276,0.021-0.57-0.144-0.809
			C32.656-1315.995,32.402-1316.151,32.119-1316.188z M29.922-1312.502c-1.802-0.804-4.018-0.409-5.415,0.99
			c-1.44,1.439-1.795,3.609-0.991,5.415c-0.64,0.32-1.302,0.598-1.979,0.818c-0.707-1.843-2.491-3.128-4.532-3.128
			c-2.04,0-3.824,1.285-4.53,3.128c-0.681-0.224-1.344-0.498-1.982-0.818c0.805-1.805,0.451-3.976-0.991-5.416
			c-0.914-0.914-2.129-1.417-3.422-1.417c-0.688,0-1.369,0.146-1.994,0.428c-0.323-0.643-0.598-1.304-0.821-1.983
			c1.844-0.706,3.129-2.491,3.129-4.53c0-2.04-1.285-3.822-3.129-4.529c0.224-0.682,0.498-1.345,0.821-1.981
			c0.625,0.279,1.308,0.428,1.995,0.428c1.293,0,2.508-0.504,3.422-1.418c1.443-1.439,1.796-3.611,0.99-5.417
			c0.639-0.32,1.301-0.596,1.982-0.818c0.706,1.845,2.49,3.128,4.53,3.128c2.041,0,3.825-1.283,4.532-3.128
			c0.681,0.226,1.343,0.498,1.979,0.818c-0.806,1.806-0.451,3.978,0.991,5.417c0.914,0.914,2.13,1.417,3.421,1.417
			c0.688,0,1.369-0.146,1.994-0.427c0.323,0.642,0.598,1.302,0.821,1.981c-1.845,0.707-3.13,2.489-3.13,4.529
			c0,2.039,1.285,3.824,3.13,4.53C30.52-1313.806,30.245-1313.143,29.922-1312.502z M17.001-1327.694
			c-4.784,0-8.677,3.895-8.677,8.678c0,4.784,3.893,8.679,8.677,8.679c4.785,0,8.679-3.895,8.679-8.679
			C25.68-1323.802,21.786-1327.694,17.001-1327.694z M17.001-1312.34c-3.682,0-6.677-2.994-6.677-6.679
			c0-3.682,2.995-6.678,6.677-6.678s6.679,2.996,6.679,6.678C23.68-1315.334,20.684-1312.34,17.001-1312.34z M17.001-1323.759
			c-2.614,0-4.741,2.129-4.741,4.74c0,2.614,2.127,4.741,4.741,4.741c2.614,0,4.743-2.127,4.743-4.741
			C21.744-1321.63,19.615-1323.759,17.001-1323.759z M17.001-1317.146c-1.033,0-1.871-0.838-1.871-1.871
			c0-1.031,0.838-1.869,1.871-1.869c1.034,0,1.872,0.838,1.872,1.869C18.873-1317.984,18.035-1317.146,17.001-1317.146z"/>
	</g>
</g>
</svg>
