<?xml version="1.0" encoding="utf-8"?>
<!-- Generator: Adobe Illustrator 16.0.0, SVG Export Plug-In . SVG Version: 6.00 Build 0)  -->
<!DOCTYPE svg PUBLIC "-//W3C//DTD SVG 1.1//EN" "http://www.w3.org/Graphics/SVG/1.1/DTD/svg11.dtd">
<svg version="1.1" id="Layer_1" xmlns="http://www.w3.org/2000/svg" xmlns:xlink="http://www.w3.org/1999/xlink" x="0px" y="0px"
	 width="32px" height="15.259px" viewBox="1 -235.028 32 15.259" enable-background="new 1 -235.028 32 15.259"
	 xml:space="preserve">
<path fill="#302B2A" d="M33-227.4c0.001-0.271-0.102-0.541-0.309-0.746c-0.004-0.006-0.01-0.006-0.018-0.01l-6.563-6.564
	c-0.41-0.41-1.077-0.41-1.488,0c-0.412,0.41-0.412,1.078,0,1.488l4.779,4.781H2.054c-0.582,0-1.054,0.473-1.054,1.055
	s0.472,1.055,1.054,1.055h27.344l-4.774,4.773c-0.412,0.412-0.412,1.08,0,1.49c0.205,0.207,0.476,0.309,0.744,0.309
	s0.539-0.102,0.745-0.309l6.563-6.563c0.104-0.1,0.188-0.219,0.243-0.354C32.973-227.123,33-227.26,33-227.4z"/>
</svg>
