<?xml version="1.0" encoding="utf-8"?>
<!-- Generator: Adobe Illustrator 16.0.0, SVG Export Plug-In . SVG Version: 6.00 Build 0)  -->
<!DOCTYPE svg PUBLIC "-//W3C//DTD SVG 1.1//EN" "http://www.w3.org/Graphics/SVG/1.1/DTD/svg11.dtd">
<svg version="1.1" id="Layer_1" xmlns="http://www.w3.org/2000/svg" xmlns:xlink="http://www.w3.org/1999/xlink" x="0px" y="0px"
	 width="26.168px" height="10px" viewBox="3.916 -315.031 26.168 10" enable-background="new 3.916 -315.031 26.168 10"
	 xml:space="preserve">
<path fill="#302B2A" d="M29.083-311.03H11.915v-3c0-0.369-0.203-0.707-0.528-0.881c-0.325-0.176-0.72-0.156-1.026,0.049l-6,4
	c-0.278,0.188-0.445,0.498-0.445,0.832s0.167,0.646,0.445,0.832l6,4c0.168,0.111,0.361,0.168,0.555,0.168
	c0.162,0,0.324-0.039,0.472-0.117c0.325-0.174,0.528-0.514,0.528-0.883v-3h17.168c0.555,0,1-0.447,1-1
	C30.084-310.581,29.637-311.03,29.083-311.03z M6.718-310.03l3.197-2.131v2.117c0,0.004-0.003,0.01-0.003,0.014
	c0,0.006,0.003,0.01,0.003,0.016v2.115L6.718-310.03z"/>
</svg>
