<?xml version="1.0" encoding="utf-8"?>
<!-- Generator: Adobe Illustrator 16.0.4, SVG Export Plug-In . SVG Version: 6.00 Build 0)  -->
<!DOCTYPE svg PUBLIC "-//W3C//DTD SVG 1.1//EN" "http://www.w3.org/Graphics/SVG/1.1/DTD/svg11.dtd">
<svg version="1.1" id="Layer_1" xmlns="http://www.w3.org/2000/svg" xmlns:xlink="http://www.w3.org/1999/xlink" x="0px" y="0px"
	 width="32px" height="32px" viewBox="0 0 32 32" enable-background="new 0 0 32 32" xml:space="preserve">
<g id="Compass_2_">
	<g>
		<path fill="#302B2A" d="M21.741,7.435l-7.413,4.942c-0.423,0.195-0.817,0.455-1.156,0.795c-0.379,0.379-0.672,0.82-0.87,1.302
			l-4.866,7.271c-0.699,0.783-0.673,1.989,0.079,2.744c0.378,0.377,0.88,0.586,1.414,0.586c0.496,0,0.964-0.182,1.33-0.509
			l7.413-4.94c0.424-0.194,0.816-0.455,1.156-0.795c0.379-0.377,0.672-0.817,0.869-1.299l4.867-7.271
			c0.699-0.785,0.672-1.992-0.08-2.746C23.758,6.789,22.503,6.756,21.741,7.435z M9.081,22.948l-0.152,0.125H8.93l-0.001,1v-1
			l3.522-5.266c0.188,0.368,0.419,0.721,0.721,1.021c0.299,0.299,0.646,0.525,1.012,0.717L9.081,22.948z M17.874,16.692L17.4,17.397
			l-0.715,0.479c-0.219,0.08-0.449,0.123-0.688,0.123c-0.534,0-1.036-0.207-1.414-0.586c-0.378-0.377-0.586-0.879-0.586-1.414
			c0-0.239,0.045-0.474,0.126-0.69l0.473-0.707l0.688-0.459c0.715-0.26,1.57-0.109,2.127,0.442c0.378,0.377,0.586,0.88,0.586,1.414
			C18,16.24,17.955,16.474,17.874,16.692z M16,0C7.178,0,0,7.178,0,16s7.178,16,16,16c8.822,0,16-7.178,16-16S24.822,0,16,0z M16,30
			C8.28,30,2,23.722,2,16C2,8.281,8.28,2,16,2c7.721,0,14,6.281,14,14C30,23.722,23.721,30,16,30z M16,6c0.553,0,1-0.447,1-1
			c0-0.551-0.447-1-1-1c-0.553,0-1,0.449-1,1C15,5.553,15.447,6,16,6z M16,26c-0.553,0-1,0.447-1,1s0.447,1,1,1c0.553,0,1-0.447,1-1
			S16.553,26,16,26z M27,15c-0.553,0-1,0.447-1,1s0.447,1,1,1s1-0.447,1-1S27.553,15,27,15z M5,15c-0.553,0-1,0.447-1,1s0.447,1,1,1
			s1-0.447,1-1S5.553,15,5,15z"/>
	</g>
</g>
</svg>
