<?xml version="1.0" encoding="utf-8"?>
<!-- Generator: Adobe Illustrator 16.0.0, SVG Export Plug-In . SVG Version: 6.00 Build 0)  -->
<!DOCTYPE svg PUBLIC "-//W3C//DTD SVG 1.1//EN" "http://www.w3.org/Graphics/SVG/1.1/DTD/svg11.dtd">
<svg version="1.1" id="Layer_1" xmlns="http://www.w3.org/2000/svg" xmlns:xlink="http://www.w3.org/1999/xlink" x="0px" y="0px"
	 width="34px" height="23.986px" viewBox="0 58.231 34 23.986" enable-background="new 0 58.231 34 23.986" xml:space="preserve">
<path fill="#302B2A" d="M33.999,70.225c0.001-0.258-0.097-0.516-0.292-0.713c-0.008-0.008-0.02-0.01-0.025-0.018L22.711,58.524
	c-0.391-0.391-1.023-0.391-1.414,0c-0.391,0.393-0.391,1.023,0,1.414l9.289,9.289H1c-0.553,0-1,0.449-1,1c0,0.555,0.447,1,1,1
	h29.577l-9.28,9.283c-0.391,0.391-0.391,1.021,0,1.414c0.195,0.193,0.451,0.293,0.707,0.293s0.512-0.1,0.707-0.293l10.969-10.97
	c0.104-0.1,0.188-0.211,0.243-0.346C33.975,70.489,34,70.358,34,70.227l0,0L33.999,70.225z"/>
</svg>
