<?xml version="1.0" encoding="utf-8"?>
<!-- Generator: Adobe Illustrator 16.0.0, SVG Export Plug-In . SVG Version: 6.00 Build 0)  -->
<!DOCTYPE svg PUBLIC "-//W3C//DTD SVG 1.1//EN" "http://www.w3.org/Graphics/SVG/1.1/DTD/svg11.dtd">
<svg version="1.1" id="Layer_1" xmlns="http://www.w3.org/2000/svg" xmlns:xlink="http://www.w3.org/1999/xlink" x="0px" y="0px"
	 width="32px" height="32.001px" viewBox="1 -1029.025 32 32.001" enable-background="new 1 -1029.025 32 32.001"
	 xml:space="preserve">
<g id="User_2_">
	<g>
		<path fill="#302B2A" d="M17-1007.024c4.963,0,9-4.936,9-11c0-6.063-4.038-11.001-9-11.001c-2.447,0-4.734,1.174-6.438,3.307
			C8.909-1023.655,8-1020.92,8-1018.024C8-1011.959,12.037-1007.024,17-1007.024z M17-1027.024c3.859,0,7,4.037,7,9
			c0,4.962-3.141,9-7,9s-7-4.038-7.001-9C9.999-1022.987,13.14-1027.024,17-1027.024z M24-1009.024c-0.553,0-1,0.447-1,1
			c0,0.552,0.447,1,1,1c3.859,0,7,3.142,7,6.999c0,0.552-0.449,1.001-1,1.001H4c-0.551,0-1-0.449-1-1.001
			c0-3.857,3.141-6.999,7-6.999c0.553,0,1-0.448,1-1c0-0.553-0.447-1-1-1c-4.963,0-9,4.037-9,8.999c0,1.655,1.346,3.001,3,3.001
			h22.5H30c1.654,0,3-1.346,3-3.001C33-1004.987,28.963-1009.024,24-1009.024z"/>
	</g>
</g>
</svg>
