<?xml version="1.0" encoding="utf-8"?>
<!-- Generator: Adobe Illustrator 16.0.0, SVG Export Plug-In . SVG Version: 6.00 Build 0)  -->
<!DOCTYPE svg PUBLIC "-//W3C//DTD SVG 1.1//EN" "http://www.w3.org/Graphics/SVG/1.1/DTD/svg11.dtd">
<svg version="1.1" id="Layer_1" xmlns="http://www.w3.org/2000/svg" xmlns:xlink="http://www.w3.org/1999/xlink" x="0px" y="0px"
	 width="32.032px" height="32px" viewBox="0.984 152.217 32.032 32" enable-background="new 0.984 152.217 32.032 32"
	 xml:space="preserve">
<g id="Magnifying_x5F_Glass_2_">
	<g>
		<path fill="#302B2A" d="M21.504,152.217c-6.347,0-11.511,5.158-11.511,11.5c0,2.084,0.565,4.033,1.539,5.721l-9.668,9.658
			c-1.173,1.172-1.173,3.072,0,4.242c0.586,0.586,1.354,0.879,2.123,0.879s1.537-0.293,2.123-0.879l9.668-9.658
			c1.688,0.975,3.641,1.537,5.726,1.537c6.348,0,11.512-5.158,11.512-11.5S27.852,152.217,21.504,152.217z M4.695,181.924
			c-0.256,0.256-0.554,0.293-0.708,0.293c-0.154,0-0.452-0.037-0.708-0.293c-0.255-0.254-0.293-0.551-0.293-0.707
			c0-0.154,0.038-0.451,0.293-0.705l9.415-9.408c0.431,0.514,0.904,0.984,1.415,1.416L4.695,181.924z M21.504,173.217
			c-5.243,0-9.509-4.262-9.509-9.5s4.266-9.5,9.509-9.5c5.244,0,9.51,4.262,9.51,9.5S26.748,173.217,21.504,173.217z
			 M26.773,158.317c-0.394-0.391-1.024-0.391-1.416,0c-0.394,0.393-0.394,1.023,0,1.414c2.199,2.199,2.199,5.773,0,7.973
			c-0.393,0.391-0.393,1.021,0,1.414c0.197,0.193,0.453,0.293,0.709,0.293s0.512-0.1,0.707-0.293
			C29.753,166.141,29.753,161.297,26.773,158.317z"/>
	</g>
</g>
</svg>
