<?xml version="1.0" encoding="utf-8"?>
<!-- Generator: Adobe Illustrator 16.0.0, SVG Export Plug-In . SVG Version: 6.00 Build 0)  -->
<!DOCTYPE svg PUBLIC "-//W3C//DTD SVG 1.1//EN" "http://www.w3.org/Graphics/SVG/1.1/DTD/svg11.dtd">
<svg version="1.1" id="Layer_1" xmlns="http://www.w3.org/2000/svg" xmlns:xlink="http://www.w3.org/1999/xlink" x="0px" y="0px"
	 width="16px" height="32px" viewBox="9 -1437.007 16 32" enable-background="new 9 -1437.007 16 32" xml:space="preserve">
<g id="Clip_2_">
	<g>
		<path fill="#302B2A" d="M17-1437.007c-4.411,0-8,3.589-8,8v18c0,3.309,2.691,6,6,6s6-2.691,6-6v-18c0-2.206-1.794-4-4-4
			s-4,1.794-4,4v15c0,0.552,0.448,1,1,1c0.553,0,1-0.448,1-1v-15c0-1.104,0.897-2,2-2c1.104,0,2,0.896,2,2v18c0,2.206-1.794,4-4,4
			c-2.205,0-4-1.794-4-4v-18c0-3.311,2.691-6,6-6s6,2.689,6,6v15c0,0.552,0.447,1,1,1s1-0.448,1-1v-15
			C25-1433.418,21.411-1437.007,17-1437.007z"/>
	</g>
</g>
</svg>
