<?xml version="1.0" encoding="utf-8"?>
<!-- Generator: Adobe Illustrator 16.0.0, SVG Export Plug-In . SVG Version: 6.00 Build 0)  -->
<!DOCTYPE svg PUBLIC "-//W3C//DTD SVG 1.1//EN" "http://www.w3.org/Graphics/SVG/1.1/DTD/svg11.dtd">
<svg version="1.1" id="Layer_1" xmlns="http://www.w3.org/2000/svg" xmlns:xlink="http://www.w3.org/1999/xlink" x="0px" y="0px"
	 width="32.001px" height="32px" viewBox="1 -1539.008 32.001 32" enable-background="new 1 -1539.008 32.001 32"
	 xml:space="preserve">
<g id="Pencil_2_">
	<g>
		<path fill="#302B2A" d="M31.277-1537.286c-1.109-1.11-2.586-1.722-4.156-1.722c-1.568,0-3.045,0.608-4.154,1.72l-17.672,17.571
			c-0.104,0.104-0.185,0.229-0.234,0.365l-4,11c-0.13,0.356-0.047,0.756,0.215,1.031c0.191,0.201,0.454,0.313,0.724,0.313
			c0.098,0,0.196-0.016,0.293-0.044l9.949-3.053c0.156-0.048,0.299-0.134,0.414-0.249l18.622-18.621
			c1.111-1.107,1.725-2.587,1.725-4.155C32.998-1534.699,32.389-1536.175,31.277-1537.286z M11.092-1511.842l-3.724,1.144
			c-0.218-0.636-0.556-1.201-1.016-1.661c-0.402-0.399-0.867-0.709-1.356-0.961l1.703-4.687H9v2c0,0.553,0.447,1,1,1h1.766
			L11.092-1511.842z M25.813-1526.336l-12.184,12.185l0.35-1.646c0.063-0.297-0.012-0.604-0.201-0.838
			c-0.191-0.235-0.476-0.371-0.778-0.371h-2v-2c0-0.554-0.447-1-1-1H8.423l11.893-11.824l0.013,0.01
			c0.731-0.73,1.706-1.136,2.741-1.136s2.011,0.402,2.742,1.136c0.73,0.734,1.138,1.707,1.138,2.743
			S26.546-1527.069,25.813-1526.336z M29.863-1530.385l-0.934,0.934c-0.092-1.43-0.685-2.761-1.703-3.782
			c-1.021-1.021-2.355-1.614-3.785-1.703l0.936-0.931l0.002-0.002c0.732-0.733,1.706-1.137,2.742-1.137
			c1.035,0,2.01,0.401,2.742,1.136c0.732,0.729,1.137,1.707,1.137,2.742C31-1532.092,30.598-1531.119,29.863-1530.385z
			 M23.293-1530.714l-10,10c-0.391,0.391-0.391,1.021,0,1.413c0.195,0.194,0.451,0.294,0.707,0.294s0.512-0.1,0.707-0.293l10-10
			c0.391-0.392,0.391-1.022,0-1.413C24.316-1531.105,23.684-1531.105,23.293-1530.714z"/>
	</g>
</g>
</svg>
