<?xml version="1.0" encoding="utf-8"?>
<!-- Generator: Adobe Illustrator 16.0.4, SVG Export Plug-In . SVG Version: 6.00 Build 0)  -->
<!DOCTYPE svg PUBLIC "-//W3C//DTD SVG 1.1//EN" "http://www.w3.org/Graphics/SVG/1.1/DTD/svg11.dtd">
<svg version="1.1" id="Layer_1" xmlns="http://www.w3.org/2000/svg" xmlns:xlink="http://www.w3.org/1999/xlink" x="0px" y="0px"
	 width="34px" height="34px" viewBox="0 0 34 34" enable-background="new 0 0 34 34" xml:space="preserve">
<g>
	<g>
		<path fill="#FFFFFF" d="M24,16h-6v-6c0-0.551-0.447-1-1-1c-0.553,0-1,0.449-1,1v6h-6c-0.553,0-1,0.449-1,1c0,0.553,0.447,1,1,1h6
			v6c0,0.553,0.447,1,1,1c0.553,0,1-0.447,1-1v-6h6c0.553,0,1-0.447,1-1C25,16.449,24.553,16,24,16z"/>
	</g>
	<g>
		<path fill="#FFFFFF" d="M17,34C7.626,34,0,26.374,0,17S7.626,0,17,0s17,7.626,17,17S26.374,34,17,34z M17,2C8.729,2,2,8.729,2,17
			c0,8.271,6.729,15,15,15c8.271,0,15-6.729,15-15C32,8.729,25.271,2,17,2z"/>
	</g>
</g>
</svg>
