<?xml version="1.0" encoding="utf-8"?>
<!-- Generator: Adobe Illustrator 16.0.0, SVG Export Plug-In . SVG Version: 6.00 Build 0)  -->
<!DOCTYPE svg PUBLIC "-//W3C//DTD SVG 1.1//EN" "http://www.w3.org/Graphics/SVG/1.1/DTD/svg11.dtd">
<svg version="1.1" id="Layer_1" xmlns="http://www.w3.org/2000/svg" xmlns:xlink="http://www.w3.org/1999/xlink" x="0px" y="0px"
	 width="31.986px" height="31.986px" viewBox="1.007 -723.019 31.986 31.986" enable-background="new 1.007 -723.019 31.986 31.986"
	 xml:space="preserve">
<g id="Mail_x5F_2_2_">
	<g>
		<path fill="#302B2A" d="M32.991-722.019c0-0.037,0-0.07-0.005-0.104c-0.004-0.035-0.004-0.07-0.01-0.104
			c-0.006-0.021-0.018-0.038-0.021-0.057c-0.014-0.037-0.021-0.073-0.039-0.108c-0.008-0.021-0.014-0.043-0.021-0.063
			c-0.019-0.03-0.037-0.061-0.058-0.089c-0.019-0.028-0.036-0.059-0.06-0.083c-0.028-0.038-0.06-0.075-0.094-0.109
			c-0.009-0.008-0.014-0.019-0.021-0.024c-0.018-0.015-0.035-0.018-0.053-0.027c-0.016-0.018-0.031-0.028-0.051-0.041
			c-0.015-0.011-0.021-0.023-0.033-0.032c-0.004-0.003-0.01-0.003-0.014-0.005c-0.007-0.006-0.011-0.012-0.019-0.015
			c-0.037-0.022-0.08-0.032-0.121-0.051c-0.03-0.014-0.063-0.026-0.097-0.037c-0.028-0.012-0.06-0.02-0.09-0.022
			c-0.037-0.008-0.069-0.008-0.106-0.013c-0.045-0.005-0.091-0.016-0.136-0.015c-0.012,0.002-0.022,0.008-0.034,0.009
			c-0.022,0.001-0.048,0.011-0.072,0.015c-0.036,0.006-0.071,0.01-0.106,0.02c-0.041,0.014-0.08,0.024-0.117,0.042
			c-0.031,0.015-0.063,0.028-0.094,0.047c-0.023,0.015-0.056,0.022-0.08,0.04c-0.008,0.005-0.016,0.007-0.021,0.012h0.001
			L1.434-701.85c-0.359,0.25-0.512,0.704-0.381,1.12c0.131,0.415,0.518,0.698,0.953,0.698h10v8c0,0.038,0.018,0.068,0.021,0.104
			c0.008,0.067,0.02,0.135,0.039,0.198c0.021,0.063,0.047,0.116,0.076,0.172c0.031,0.058,0.064,0.105,0.105,0.154
			c0.043,0.054,0.092,0.1,0.146,0.143c0.029,0.021,0.045,0.056,0.076,0.072c0.031,0.021,0.064,0.027,0.096,0.043
			c0.033,0.019,0.063,0.029,0.096,0.043c0.113,0.041,0.227,0.069,0.344,0.069h0.002c0.119-0.001,0.234-0.028,0.346-0.07
			c0.023-0.009,0.047-0.017,0.07-0.025c0.102-0.046,0.195-0.105,0.277-0.188c0.014-0.014,0.023-0.027,0.035-0.043
			c0.041-0.045,0.082-0.086,0.115-0.139l3.613-5.71c0.023,0.017,0.04,0.039,0.064,0.053l11,6.001
			c0.295,0.158,0.646,0.164,0.947,0.006c0.295-0.156,0.491-0.451,0.524-0.785l2.987-29.988
			C32.999-721.958,32.991-721.988,32.991-722.019z M12.565-702.035H5.183l20.129-14.09L12.565-702.035z M14.008-695.482v-5.166
			l10.903-12.051L14.008-695.482z M28.163-693.634l-9.631-5.253l12.055-19.036L28.163-693.634z"/>
	</g>
</g>
</svg>
