<?xml version="1.0" encoding="utf-8"?>
<!-- Generator: Adobe Illustrator 16.0.0, SVG Export Plug-In . SVG Version: 6.00 Build 0)  -->
<!DOCTYPE svg PUBLIC "-//W3C//DTD SVG 1.1//EN" "http://www.w3.org/Graphics/SVG/1.1/DTD/svg11.dtd">
<svg version="1.1" id="Layer_1" xmlns="http://www.w3.org/2000/svg" xmlns:xlink="http://www.w3.org/1999/xlink" x="0px" y="0px"
	 width="32px" height="32px" viewBox="1 -519.032 32 32" enable-background="new 1 -519.032 32 32" xml:space="preserve">
<g id="Watch_2_">
	<g>
		<path fill="#302B2A" d="M17-519.032c-8.822,0-16,7.178-16,16s7.178,16,16,16c8.822,0,16-7.178,16-16S25.822-519.032,17-519.032z
			 M17-489.032c-7.72,0-14-6.28-14-14c0-7.721,6.28-14,14-14c7.721,0,14,6.279,14,14C31-495.312,24.721-489.032,17-489.032z
			 M19.613-501.589C19.851-502.02,20-502.505,20-503.03c0-1.302-0.839-2.401-2-2.813v-8.187c0-0.552-0.447-1-1-1s-1,0.448-1,1v8.186
			c-1.161,0.413-2,1.516-2,2.814c0,1.653,1.346,3,3,3c0.396,0,0.773-0.081,1.121-0.222l4.172,4.171
			c0.195,0.193,0.451,0.293,0.707,0.293s0.512-0.1,0.707-0.293c0.391-0.393,0.391-1.022,0-1.413L19.613-501.589z M17-502.032
			c-0.552,0-1-0.448-1-1c0-0.551,0.448-1,1-1c0.553,0,1,0.449,1,1C18-502.48,17.553-502.032,17-502.032z"/>
	</g>
</g>
</svg>
