<?xml version="1.0" encoding="utf-8"?>
<!-- Generator: Adobe Illustrator 16.0.4, SVG Export Plug-In . SVG Version: 6.00 Build 0)  -->
<!DOCTYPE svg PUBLIC "-//W3C//DTD SVG 1.1//EN" "http://www.w3.org/Graphics/SVG/1.1/DTD/svg11.dtd">
<svg version="1.1" id="Layer_1" xmlns="http://www.w3.org/2000/svg" xmlns:xlink="http://www.w3.org/1999/xlink" x="0px" y="0px"
	 width="31.984px" height="31.986px" viewBox="0 0 31.984 31.986" enable-background="new 0 0 31.984 31.986" xml:space="preserve">
<g id="Tools_2_">
	<g>
		<path fill="#FFFFFF" d="M31.111,18.822c-1.428-0.185-2.506-1.396-2.506-2.829c0-1.429,1.078-2.646,2.506-2.826
			c0.283-0.037,0.537-0.192,0.699-0.433c0.16-0.237,0.213-0.531,0.143-0.809c-0.389-1.527-0.992-2.987-1.799-4.342
			c-0.145-0.245-0.391-0.418-0.672-0.475C29.199,7.056,28.91,7.127,28.683,7.3c-1.104,0.852-2.785,0.756-3.771-0.23
			c-1.012-1.01-1.107-2.631-0.229-3.771c0.178-0.229,0.246-0.521,0.189-0.798c-0.053-0.281-0.225-0.526-0.471-0.674
			c-1.352-0.807-2.811-1.407-4.342-1.801c-0.277-0.066-0.57-0.019-0.809,0.146c-0.236,0.16-0.395,0.416-0.432,0.698
			c-0.184,1.429-1.398,2.504-2.83,2.504c-1.431,0-2.646-1.075-2.828-2.503c-0.037-0.283-0.192-0.539-0.43-0.699
			s-0.53-0.211-0.809-0.146C10.393,0.42,8.932,1.021,7.58,1.827C7.334,1.973,7.163,2.22,7.11,2.501
			C7.056,2.779,7.126,3.07,7.301,3.299c0.88,1.14,0.781,2.761-0.229,3.771C6.086,8.054,4.404,8.152,3.3,7.299
			C3.073,7.123,2.782,7.057,2.5,7.108C2.22,7.161,1.976,7.336,1.828,7.582c-0.807,1.354-1.411,2.813-1.798,4.343
			c-0.07,0.273-0.018,0.567,0.144,0.808c0.16,0.236,0.416,0.396,0.698,0.433c1.429,0.185,2.504,1.397,2.504,2.826
			c0,1.432-1.075,2.646-2.504,2.829c-0.282,0.036-0.538,0.192-0.698,0.432c-0.16,0.234-0.214,0.528-0.144,0.81
			c0.387,1.525,0.992,2.986,1.798,4.342C1.975,24.65,2.22,24.822,2.5,24.878c0.28,0.052,0.572-0.02,0.799-0.189
			c1.107-0.854,2.789-0.755,3.771,0.229C8.081,25.93,8.18,27.55,7.3,28.689c-0.176,0.229-0.244,0.521-0.19,0.799
			c0.054,0.28,0.226,0.525,0.471,0.674c1.353,0.805,2.813,1.406,4.343,1.799c0.08,0.021,0.163,0.027,0.245,0.027
			c0.198,0,0.396-0.059,0.563-0.173c0.236-0.161,0.393-0.416,0.43-0.698c0.184-1.429,1.398-2.505,2.828-2.505
			c1.428,0,2.647,1.076,2.831,2.505c0.037,0.283,0.193,0.538,0.43,0.698c0.236,0.162,0.529,0.213,0.811,0.146
			c1.529-0.393,2.99-0.994,4.34-1.799c0.244-0.146,0.416-0.393,0.471-0.673c0.057-0.279-0.016-0.569-0.188-0.799
			c-0.879-1.142-0.777-2.762,0.229-3.771c0.984-0.984,2.666-1.081,3.771-0.229c0.229,0.177,0.52,0.244,0.799,0.189
			c0.281-0.056,0.525-0.229,0.674-0.474c0.805-1.354,1.408-2.812,1.797-4.343c0.07-0.275,0.021-0.569-0.143-0.809
			C31.648,19.015,31.394,18.859,31.111,18.822z M28.914,22.508c-1.801-0.804-4.018-0.409-5.414,0.99
			c-1.439,1.438-1.795,3.608-0.99,5.415c-0.641,0.319-1.303,0.598-1.98,0.817c-0.707-1.843-2.49-3.128-4.532-3.128
			c-2.04,0-3.823,1.285-4.529,3.128c-0.682-0.224-1.345-0.498-1.982-0.817c0.805-1.806,0.451-3.977-0.991-5.416
			C7.58,22.583,6.365,22.08,5.073,22.08c-0.688,0-1.369,0.146-1.994,0.428c-0.322-0.644-0.598-1.304-0.82-1.983
			c1.844-0.706,3.129-2.491,3.129-4.53c0-2.04-1.285-3.821-3.129-4.528c0.224-0.683,0.498-1.346,0.82-1.981
			c0.625,0.279,1.309,0.428,1.995,0.428c1.293,0,2.508-0.504,3.422-1.418c1.443-1.438,1.796-3.61,0.99-5.417
			c0.639-0.319,1.301-0.596,1.982-0.817c0.706,1.845,2.489,3.128,4.529,3.128c2.042,0,3.825-1.283,4.532-3.128
			c0.682,0.226,1.344,0.498,1.98,0.817c-0.807,1.807-0.451,3.979,0.99,5.417c0.914,0.914,2.131,1.417,3.422,1.417
			c0.688,0,1.367-0.146,1.992-0.427c0.324,0.643,0.6,1.302,0.822,1.981c-1.846,0.707-3.131,2.488-3.131,4.528
			c0,2.039,1.285,3.824,3.131,4.53C29.513,21.203,29.238,21.866,28.914,22.508z M15.993,7.316c-4.784,0-8.677,3.896-8.677,8.678
			c0,4.784,3.893,8.68,8.677,8.68c4.786,0,8.68-3.896,8.68-8.68C24.674,11.208,20.779,7.316,15.993,7.316z M15.993,22.67
			c-3.682,0-6.677-2.994-6.677-6.68c0-3.682,2.995-6.678,6.677-6.678c3.682,0,6.68,2.996,6.68,6.678
			C22.674,19.676,19.677,22.67,15.993,22.67z M15.993,11.251c-2.613,0-4.741,2.129-4.741,4.739c0,2.614,2.128,4.741,4.741,4.741
			c2.614,0,4.743-2.127,4.743-4.741C20.736,13.38,18.607,11.251,15.993,11.251z M15.993,17.864c-1.033,0-1.871-0.838-1.871-1.871
			c0-1.03,0.838-1.868,1.871-1.868c1.034,0,1.872,0.838,1.872,1.868C17.865,17.026,17.027,17.864,15.993,17.864z"/>
	</g>
</g>
</svg>
