<?xml version="1.0" encoding="utf-8"?>
<!-- Generator: Adobe Illustrator 16.0.4, SVG Export Plug-In . SVG Version: 6.00 Build 0)  -->
<!DOCTYPE svg PUBLIC "-//W3C//DTD SVG 1.1//EN" "http://www.w3.org/Graphics/SVG/1.1/DTD/svg11.dtd">
<svg version="1.1" id="Layer_1" xmlns="http://www.w3.org/2000/svg" xmlns:xlink="http://www.w3.org/1999/xlink" x="0px" y="0px"
	 width="32px" height="32.003px" viewBox="0 0 32 32.003" enable-background="new 0 0 32 32.003" xml:space="preserve">
<g id="Shape_76_2_">
	<g>
		<path fill="#FFFFFF" d="M14.5,22.004c4.137,0,7.5-4.095,7.5-9.126c0-5.032-3.363-9.125-7.5-9.125
			c-2.046,0-3.956,0.979-5.378,2.755C7.753,8.22,6.999,10.484,7,12.878C7,17.91,10.364,22.004,14.5,22.004z M14.5,5.753
			c3.032,0,5.5,3.196,5.5,7.125c0,3.931-2.468,7.126-5.5,7.126S9,16.807,8.998,12.878C8.998,8.95,11.466,5.753,14.5,5.753z
			 M20.799,21.004c-0.553,0-1,0.446-1,1c0,0.552,0.447,1,1,1c3.419,0,6.201,2.78,6.201,6.199c0,0.439-0.359,0.801-0.801,0.801h-23.4
			C2.359,30.004,2,29.647,2,29.204c0-3.419,2.781-6.199,6.199-6.199c0.553,0,1-0.448,1-1c0-0.554-0.447-1-1-1
			C3.678,21.004,0,24.682,0,29.204c0,1.544,1.256,2.801,2.799,2.801h20.25h3.15c1.544,0,2.801-1.257,2.801-2.801
			C29,24.683,25.32,21.004,20.799,21.004z M15.231,2.642c0.716-0.426,1.479-0.64,2.269-0.64c3.032,0,5.5,3.195,5.5,7.124
			c0,0.704-0.078,1.396-0.232,2.059c-0.127,0.538,0.207,1.074,0.744,1.2c0.077,0.021,0.153,0.025,0.229,0.025
			c0.454,0,0.864-0.312,0.973-0.771C24.902,10.827,25,9.986,25,9.125C25,4.094,21.637,0,17.5,0c-1.137,0-2.272,0.316-3.286,0.917
			c-0.476,0.28-0.633,0.896-0.352,1.369C14.143,2.765,14.758,2.923,15.231,2.642z M24,17.003c-0.553,0-1,0.447-1,1.001
			c0,0.552,0.447,0.999,1,0.999c3.419,0,6,2.851,6,6.27c0,0.112-0.021,0.227-0.068,0.324c-0.224,0.507,0.004,1.098,0.508,1.32
			c0.134,0.061,0.271,0.086,0.406,0.086c0.383,0,0.748-0.222,0.914-0.595c0.159-0.358,0.24-0.741,0.24-1.14
			C32,20.749,28.521,17.003,24,17.003z"/>
	</g>
</g>
</svg>
