<?xml version="1.0" encoding="utf-8"?>
<!-- Generator: Adobe Illustrator 16.0.0, SVG Export Plug-In . SVG Version: 6.00 Build 0)  -->
<!DOCTYPE svg PUBLIC "-//W3C//DTD SVG 1.1//EN" "http://www.w3.org/Graphics/SVG/1.1/DTD/svg11.dtd">
<svg version="1.1" id="Layer_1" xmlns="http://www.w3.org/2000/svg" xmlns:xlink="http://www.w3.org/1999/xlink" x="0px" y="0px"
	 width="32px" height="16px" viewBox="1 356.217 32 16" enable-background="new 1 356.217 32 16" xml:space="preserve">
<g id="Eye_2_">
	<g>
		<path fill="#302B2A" d="M17,356.217c-8.972,0-16,3.516-16,8s7.028,8,16,8c8.973,0,16-3.516,16-8
			C33,359.731,25.973,356.217,17,356.217z M3,364.217c0-2.102,3.151-4.371,8.129-5.414C9.812,360.229,9,362.127,9,364.217
			s0.812,3.988,2.129,5.416C6.151,368.59,3,366.315,3,364.217z M17,370.217c-3.309,0-6-2.691-6-6c0-3.311,2.691-6,6-6s6,2.689,6,6
			C23,367.526,20.309,370.217,17,370.217z M22.871,369.633c1.316-1.428,2.129-3.326,2.129-5.416s-0.813-3.988-2.129-5.414
			c4.979,1.043,8.129,3.313,8.129,5.414C31,366.317,27.85,368.59,22.871,369.633z M17,361.217c-1.654,0-3,1.346-3,3s1.346,3,3,3
			s3-1.346,3-3S18.654,361.217,17,361.217z M17,365.217c-0.552,0-1-0.447-1-1c0-0.551,0.448-1,1-1c0.553,0,1,0.449,1,1
			C18,364.77,17.553,365.217,17,365.217z"/>
	</g>
</g>
</svg>
