<?xml version="1.0" encoding="utf-8"?>
<!-- Generator: Adobe Illustrator 16.0.0, SVG Export Plug-In . SVG Version: 6.00 Build 0)  -->
<!DOCTYPE svg PUBLIC "-//W3C//DTD SVG 1.1//EN" "http://www.w3.org/Graphics/SVG/1.1/DTD/svg11.dtd">
<svg version="1.1" id="Layer_1" xmlns="http://www.w3.org/2000/svg" xmlns:xlink="http://www.w3.org/1999/xlink" x="0px" y="0px"
	 width="32.001px" height="32px" viewBox="0.999 646.219 32.001 32" enable-background="new 0.999 646.219 32.001 32"
	 xml:space="preserve">
<g id="Heart_2_">
	<g>
		<path fill="#302B2A" d="M23,646.219c-0.309,0-0.615,0.02-0.922,0.047c-0.111,0.01-0.223,0.027-0.334,0.041
			c-0.188,0.023-0.373,0.051-0.559,0.086c-0.135,0.025-0.27,0.053-0.4,0.082c-0.154,0.035-0.307,0.076-0.459,0.119
			c-0.145,0.039-0.287,0.078-0.43,0.125c-0.129,0.041-0.254,0.092-0.381,0.139c-0.334,0.125-0.66,0.27-0.975,0.424
			c-0.064,0.031-0.129,0.063-0.191,0.096c-0.166,0.088-0.326,0.186-0.488,0.279c-0.088,0.057-0.178,0.105-0.266,0.162
			c-0.155,0.104-0.306,0.207-0.456,0.314c-0.046,0.033-0.094,0.063-0.14,0.098c-1.729-1.303-3.829-2.012-6-2.012
			c-5.515,0-10,4.482-10,10c0,9.051,5.819,17.238,15.567,21.898c0.138,0.066,0.284,0.102,0.433,0.102
			c0.147,0,0.295-0.033,0.432-0.102C27.18,673.458,33,665.27,33,656.219C33,650.704,28.514,646.219,23,646.219z M17.001,676.106
			c-8.775-4.354-14-11.758-14-19.887c0-4.412,3.589-8,8-8c1.613,0,3.177,0.498,4.502,1.406c-1.553,1.762-2.502,4.063-2.502,6.594
			c0,0.551,0.446,1,1,1c0.553,0,1-0.449,1-1c0-2.381,1.052-4.52,2.708-5.984c0.152-0.137,0.313-0.266,0.475-0.389
			c0.037-0.027,0.074-0.055,0.111-0.082c0.158-0.117,0.322-0.227,0.488-0.33c0.047-0.029,0.092-0.059,0.139-0.086
			c0.162-0.096,0.326-0.188,0.494-0.271c0.057-0.027,0.117-0.059,0.176-0.084c0.16-0.076,0.322-0.148,0.486-0.215
			c0.072-0.027,0.146-0.055,0.223-0.082c0.154-0.057,0.311-0.107,0.469-0.152c0.096-0.027,0.191-0.053,0.287-0.074
			c0.143-0.037,0.285-0.074,0.432-0.104c0.131-0.023,0.266-0.041,0.398-0.063c0.113-0.016,0.229-0.035,0.344-0.047
			c0.254-0.025,0.514-0.039,0.771-0.039c4.41,0,8,3.588,8,8C31,664.348,25.775,671.752,17.001,676.106z M23,650.219
			c-0.553,0-1,0.449-1,1c0,0.553,0.447,1,1,1c2.207,0,4,1.795,4,4c0,0.553,0.447,1,1,1s1-0.447,1-1
			C29,652.911,26.309,650.219,23,650.219z"/>
	</g>
</g>
</svg>
