<?xml version="1.0" encoding="utf-8"?>
<!-- Generator: Adobe Illustrator 16.0.0, SVG Export Plug-In . SVG Version: 6.00 Build 0)  -->
<!DOCTYPE svg PUBLIC "-//W3C//DTD SVG 1.1//EN" "http://www.w3.org/Graphics/SVG/1.1/DTD/svg11.dtd">
<svg version="1.1" id="Layer_1" xmlns="http://www.w3.org/2000/svg" xmlns:xlink="http://www.w3.org/1999/xlink" x="0px" y="0px"
	 width="25.6px" height="32px" viewBox="4.2 -1641.007 25.6 32" enable-background="new 4.2 -1641.007 25.6 32"
	 xml:space="preserve">
<g id="Page-1_1_">
	<g id="icon-30-book_2_">
		<path id="book_2_" fill="#302B2A" d="M8.032-1609.007c-2.114,0-3.832-1.721-3.832-3.84v-24.963c0-1.776,1.429-3.197,3.191-3.197
			H29.8v1.277h-0.646c-1.047,0-1.916,0.86-1.916,1.921c0,1.067,0.859,1.921,1.916,1.921H29.8v26.881H10.6v-26.88h16
			c0,0-0.64-1.013-0.64-1.954c0-0.942,0.64-1.888,0.64-1.888H7.391c-1.055,0-1.91,0.854-1.91,1.921c0,1.062,0.854,1.92,1.91,1.92
			h1.93v26.881H8.032L8.032-1609.007z"/>
	</g>
</g>
</svg>
