<?xml version="1.0" encoding="utf-8"?>
<!-- Generator: Adobe Illustrator 16.0.0, SVG Export Plug-In . SVG Version: 6.00 Build 0)  -->
<!DOCTYPE svg PUBLIC "-//W3C//DTD SVG 1.1//EN" "http://www.w3.org/Graphics/SVG/1.1/DTD/svg11.dtd">
<svg version="1.1" id="Layer_1" xmlns="http://www.w3.org/2000/svg" xmlns:xlink="http://www.w3.org/1999/xlink" x="0px" y="0px"
	 width="32px" height="32px" viewBox="1 544.219 32 32" enable-background="new 1 544.219 32 32" xml:space="preserve">
<g id="Compass_2_">
	<g>
		<path fill="#302B2A" d="M22.741,551.653l-7.413,4.943c-0.423,0.195-0.817,0.455-1.156,0.795c-0.379,0.379-0.672,0.82-0.87,1.301
			l-4.866,7.271c-0.699,0.783-0.673,1.989,0.079,2.744c0.378,0.377,0.88,0.586,1.414,0.586c0.496,0,0.964-0.182,1.33-0.509
			l7.413-4.94c0.424-0.195,0.816-0.455,1.156-0.795c0.379-0.377,0.672-0.818,0.869-1.299l4.868-7.271
			c0.699-0.785,0.672-1.992-0.08-2.746C24.758,551.008,23.503,550.975,22.741,551.653z M10.081,567.167l-0.152,0.125H9.93l-0.001,1
			v-1l3.522-5.266c0.188,0.369,0.419,0.721,0.721,1.021c0.299,0.299,0.646,0.525,1.012,0.717L10.081,567.167z M18.874,560.911
			l-0.474,0.705l-0.715,0.479c-0.218,0.08-0.448,0.123-0.687,0.123c-0.534,0-1.036-0.207-1.414-0.586
			c-0.378-0.377-0.586-0.879-0.586-1.414c0-0.24,0.045-0.474,0.126-0.691l0.473-0.707l0.688-0.459
			c0.715-0.26,1.571-0.109,2.127,0.443c0.378,0.377,0.586,0.879,0.586,1.414C19,560.459,18.955,560.692,18.874,560.911z M17,544.219
			c-8.822,0-16,7.178-16,16s7.178,16,16,16c8.822,0,16-7.178,16-16S25.822,544.219,17,544.219z M17,574.219c-7.72,0-14-6.279-14-14
			c0-7.719,6.28-14,14-14c7.721,0,14,6.281,14,14C31,567.94,24.721,574.219,17,574.219z M17,550.219c0.553,0,1-0.447,1-1
			c0-0.551-0.447-1-1-1s-1,0.449-1,1C16,549.772,16.447,550.219,17,550.219z M17,570.219c-0.553,0-1,0.447-1,1s0.447,1,1,1
			s1-0.447,1-1S17.553,570.219,17,570.219z M28,559.219c-0.553,0-1,0.447-1,1s0.447,1,1,1s1-0.447,1-1S28.553,559.219,28,559.219z
			 M6,559.219c-0.553,0-1,0.447-1,1s0.447,1,1,1s1-0.447,1-1S6.553,559.219,6,559.219z"/>
	</g>
</g>
</svg>
