<?xml version="1.0" encoding="utf-8"?>
<!-- Generator: Adobe Illustrator 16.0.4, SVG Export Plug-In . SVG Version: 6.00 Build 0)  -->
<!DOCTYPE svg PUBLIC "-//W3C//DTD SVG 1.1//EN" "http://www.w3.org/Graphics/SVG/1.1/DTD/svg11.dtd">
<svg version="1.1" id="Calque_1" xmlns="http://www.w3.org/2000/svg" xmlns:xlink="http://www.w3.org/1999/xlink" x="0px" y="0px"
	 width="32px" height="32px" viewBox="0 0 32 32" enable-background="new 0 0 32 32" xml:space="preserve">
<g id="Layer_1" display="none">
	<path display="inline" opacity="0.5" fill="#302B2A" enable-background="new    " d="M21.741,7.435l-7.413,4.942
		c-0.423,0.195-0.817,0.455-1.156,0.795c-0.379,0.379-0.672,0.82-0.87,1.302l-4.866,7.271c-0.699,0.782-0.673,1.989,0.079,2.744
		c0.378,0.377,0.88,0.586,1.414,0.586c0.496,0,0.964-0.183,1.33-0.509l7.413-4.94c0.424-0.194,0.816-0.455,1.156-0.795
		c0.379-0.377,0.672-0.817,0.869-1.299l4.867-7.271c0.699-0.785,0.672-1.992-0.08-2.746C23.758,6.789,22.503,6.756,21.741,7.435z
		 M9.081,22.948l-0.152,0.125H8.93l-0.001,1v-1l3.522-5.267c0.188,0.368,0.419,0.721,0.721,1.021
		c0.299,0.299,0.646,0.525,1.012,0.717L9.081,22.948z M17.874,16.691L17.4,17.396l-0.715,0.479c-0.22,0.08-0.45,0.123-0.688,0.123
		c-0.534,0-1.036-0.207-1.414-0.586c-0.378-0.377-0.586-0.879-0.586-1.414c0-0.239,0.045-0.474,0.126-0.69l0.473-0.707l0.688-0.459
		c0.715-0.26,1.569-0.109,2.127,0.442c0.378,0.377,0.586,0.88,0.586,1.414C18,16.24,17.955,16.474,17.874,16.691z M16,0
		C7.178,0,0,7.178,0,16s7.178,16,16,16c8.822,0,16-7.178,16-16S24.822,0,16,0z M16,30C8.28,30,2,23.723,2,16C2,8.281,8.28,2,16,2
		c7.721,0,14,6.281,14,14C30,23.723,23.721,30,16,30z M16,6c0.553,0,1-0.447,1-1c0-0.551-0.447-1-1-1c-0.553,0-1,0.449-1,1
		C15,5.553,15.447,6,16,6z M16,26c-0.553,0-1,0.447-1,1s0.447,1,1,1c0.553,0,1-0.447,1-1S16.553,26,16,26z M27,15
		c-0.553,0-1,0.447-1,1s0.447,1,1,1s1-0.447,1-1S27.553,15,27,15z M5,15c-0.553,0-1,0.447-1,1s0.447,1,1,1s1-0.447,1-1
		S5.553,15,5,15z"/>
</g>
<g id="Calque_2">
	<path fill="#FFFFFF" d="M16-0.083C7.131-0.083-0.084,7.132-0.084,16S7.131,32.084,16,32.084c8.868,0,16.083-7.215,16.083-16.083
		S24.868-0.083,16-0.083z M30.083,16c0,3.523-1.31,6.741-3.456,9.213L6.787,5.374C9.259,3.227,12.476,1.917,16,1.917
		C23.766,1.917,30.083,8.235,30.083,16z M1.916,16c0-3.523,1.31-6.741,3.456-9.213l19.841,19.841
		c-2.473,2.146-5.689,3.456-9.213,3.456C8.234,30.084,1.916,23.768,1.916,16z"/>
</g>
</svg>
