<?xml version="1.0" encoding="utf-8"?>
<!-- Generator: Adobe Illustrator 16.0.0, SVG Export Plug-In . SVG Version: 6.00 Build 0)  -->
<!DOCTYPE svg PUBLIC "-//W3C//DTD SVG 1.1//EN" "http://www.w3.org/Graphics/SVG/1.1/DTD/svg11.dtd">
<svg version="1.1" id="Layer_1" xmlns="http://www.w3.org/2000/svg" xmlns:xlink="http://www.w3.org/1999/xlink" x="0px" y="0px"
	 width="24.001px" height="32.001px" viewBox="5 -417.032 24.001 32.001" enable-background="new 5 -417.032 24.001 32.001"
	 xml:space="preserve">
<g id="Reload_4_">
	<g>
		<path fill="#302B2A" d="M16.999-411.031v3c0,0.369,0.203,0.707,0.528,0.883c0.146,0.078,0.311,0.117,0.473,0.117
			c0.193,0,0.387-0.057,0.555-0.168l6-4.001c0.277-0.187,0.445-0.497,0.445-0.831c0-0.335-0.168-0.646-0.445-0.832l-6-4
			c-0.307-0.206-0.703-0.226-1.025-0.05c-0.327,0.174-0.53,0.513-0.53,0.882v3c-6.617,0-12,5.383-12,12c0,0.553,0.447,1,1,1
			c0.554,0,1-0.447,1-1C6.999-406.544,11.485-411.031,16.999-411.031z M19-414.163l3.197,2.132L19-409.9V-414.163z M28-402.031
			c-0.553,0-1,0.447-1,1c0,5.514-4.486,10-10.001,10v-3c0-0.369-0.203-0.707-0.527-0.883c-0.325-0.176-0.721-0.154-1.026,0.051l-6,4
			C9.167-390.677,9-390.365,9-390.031s0.167,0.646,0.445,0.832l6,4c0.168,0.109,0.361,0.168,0.555,0.168
			c0.162,0,0.324-0.039,0.473-0.119c0.324-0.174,0.527-0.512,0.527-0.881v-3c6.618,0,12.001-5.383,12.001-12
			C29-401.583,28.553-402.031,28-402.031z M14.999-387.9l-3.196-2.131l3.196-2.131V-387.9z"/>
	</g>
</g>
</svg>
