<?xml version="1.0" encoding="utf-8"?>
<!-- Generator: Adobe Illustrator 16.0.0, SVG Export Plug-In . SVG Version: 6.00 Build 0)  -->
<!DOCTYPE svg PUBLIC "-//W3C//DTD SVG 1.1//EN" "http://www.w3.org/Graphics/SVG/1.1/DTD/svg11.dtd">
<svg version="1.1" id="Layer_1" xmlns="http://www.w3.org/2000/svg" xmlns:xlink="http://www.w3.org/1999/xlink" x="0px" y="0px"
	 width="32px" height="32px" viewBox="1 254.217 32 32" enable-background="new 1 254.217 32 32" xml:space="preserve">
<g>
	<g>
		<path fill="#302B2A" d="M23.666,280.883H4.332c-1.836,0-3.332-1.496-3.332-3.332v-20c0-1.838,1.496-3.334,3.332-3.334H15
			c0.285,0,0.538,0.182,0.631,0.451L24.297,280c0.069,0.203,0.036,0.428-0.088,0.604C24.083,280.781,23.883,280.883,23.666,280.883z
			 M4.332,255.551c-1.103,0-2,0.896-2,2v20c0,1.104,0.897,2,2,2h18.4l-8.209-24H4.332L4.332,255.551z"/>
	</g>
	<g>
		<path fill="#302B2A" d="M29.666,286.217H19c-0.277,0-0.525-0.172-0.625-0.432l-1.999-5.334c-0.131-0.348,0.045-0.729,0.389-0.859
			c0.345-0.127,0.729,0.045,0.858,0.391l1.84,4.9h10.203c1.104,0,2.001-0.896,2.001-2v-20c0-1.104-0.897-2-2.001-2H16.999
			c-0.368,0-0.666-0.297-0.666-0.666c0-0.367,0.298-0.666,0.666-0.666h12.667c1.838,0,3.334,1.494,3.334,3.332v20
			C33,284.721,31.504,286.217,29.666,286.217z"/>
	</g>
	<g>
		<path fill="#302B2A" d="M19,286.217c-0.156,0-0.313-0.055-0.439-0.164c-0.275-0.244-0.305-0.666-0.063-0.941l4.666-5.332
			c0.243-0.279,0.665-0.307,0.941-0.063c0.274,0.242,0.306,0.664,0.063,0.939l-4.666,5.334
			C19.368,286.141,19.186,286.217,19,286.217z"/>
	</g>
	<g>
		<path fill="#302B2A" d="M13.667,272.883c-0.276,0-0.531-0.168-0.629-0.441l-2.706-7.574l-2.704,7.574
			c-0.124,0.348-0.508,0.527-0.853,0.404c-0.347-0.125-0.528-0.506-0.404-0.854l3.334-9.334c0.189-0.529,1.067-0.529,1.255,0
			l3.332,9.334c0.124,0.348-0.056,0.729-0.402,0.854C13.816,272.874,13.741,272.883,13.667,272.883z"/>
	</g>
	<g>
		<path fill="#302B2A" d="M11.666,268.883H9c-0.368,0-0.668-0.299-0.668-0.666c0-0.369,0.3-0.666,0.668-0.666h2.666
			c0.368,0,0.667,0.297,0.667,0.666C12.333,268.584,12.034,268.883,11.666,268.883z"/>
	</g>
	<g>
		<path fill="#302B2A" d="M29.666,268.883h-9.334c-0.367,0-0.666-0.299-0.666-0.666c0-0.369,0.299-0.666,0.666-0.666h9.334
			c0.368,0,0.667,0.297,0.667,0.666C30.333,268.584,30.034,268.883,29.666,268.883z"/>
	</g>
	<g>
		<path fill="#302B2A" d="M24.333,268.883c-0.368,0-0.667-0.299-0.667-0.666v-1.334c0-0.367,0.299-0.666,0.667-0.666
			S25,266.516,25,266.883v1.334C25,268.584,24.701,268.883,24.333,268.883z"/>
	</g>
	<g>
		<path fill="#302B2A" d="M22.332,276.885c-0.209,0-0.413-0.1-0.543-0.281c-0.213-0.299-0.145-0.715,0.156-0.93
			c2.92-2.072,5.055-6.303,5.055-7.455c0-0.367,0.298-0.666,0.666-0.666c0.367,0,0.666,0.299,0.666,0.666
			c0,1.756-2.568,6.379-5.613,8.543C22.604,276.844,22.467,276.885,22.332,276.885z"/>
	</g>
	<g>
		<path fill="#302B2A" d="M27.666,278.217c-0.16,0-0.322-0.057-0.449-0.174c-0.484-0.443-4.742-4.377-5.502-6.242
			c-0.139-0.34,0.027-0.729,0.368-0.869c0.337-0.137,0.729,0.027,0.867,0.367c0.546,1.342,3.913,4.611,5.167,5.76
			c0.271,0.25,0.289,0.668,0.041,0.941C28.025,278.143,27.846,278.217,27.666,278.217z"/>
	</g>
</g>
</svg>
