<?xml version="1.0" encoding="utf-8"?>
<!-- Generator: Adobe Illustrator 16.0.0, SVG Export Plug-In . SVG Version: 6.00 Build 0)  -->
<!DOCTYPE svg PUBLIC "-//W3C//DTD SVG 1.1//EN" "http://www.w3.org/Graphics/SVG/1.1/DTD/svg11.dtd">
<svg version="1.1" id="Layer_1" xmlns="http://www.w3.org/2000/svg" xmlns:xlink="http://www.w3.org/1999/xlink" x="0px" y="0px"
	 width="42.75px" height="2525.227px" viewBox="-4.375 -1641.007 42.75 2525.227"
	 enable-background="new -4.375 -1641.007 42.75 2525.227" xml:space="preserve">
<g id="Guides_For_Artboard">
</g>
<g id="Graphics_xA0_Image_1_">
</g>
<path fill="#302B2A" d="M22.741,551.653l-7.413,4.943c-0.423,0.195-0.817,0.455-1.156,0.795c-0.379,0.379-0.672,0.82-0.87,1.301
	l-4.866,7.27c-0.699,0.783-0.673,1.99,0.079,2.744c0.378,0.377,0.88,0.586,1.414,0.586c0.496,0,0.964-0.18,1.33-0.508l7.413-4.941
	c0.424-0.195,0.816-0.455,1.156-0.795c0.379-0.377,0.672-0.818,0.869-1.299l4.867-7.27c0.699-0.785,0.672-1.992-0.08-2.746
	C24.758,551.008,23.503,550.975,22.741,551.653z M10.081,567.167l-0.152,0.125H9.93l-0.001,1v-1l3.522-5.264
	c0.188,0.369,0.419,0.719,0.721,1.02c0.299,0.299,0.646,0.527,1.012,0.717L10.081,567.167z M18.874,560.911l-0.474,0.707
	l-0.715,0.479c-0.218,0.08-0.448,0.123-0.687,0.123c-0.534,0-1.036-0.207-1.414-0.586c-0.378-0.377-0.586-0.879-0.586-1.414
	c0-0.24,0.045-0.473,0.126-0.691l0.473-0.707l0.688-0.459c0.715-0.26,1.571-0.111,2.127,0.443c0.378,0.377,0.586,0.879,0.586,1.414
	C19,560.459,18.955,560.692,18.874,560.911z M17,544.219c-8.822,0-16,7.178-16,16s7.178,16,16,16c8.822,0,16-7.178,16-16
	S25.822,544.219,17,544.219z M17,574.219c-7.72,0-14-6.279-14-14c0-7.719,6.28-14,14-14c7.721,0,14,6.281,14,14
	C31,567.94,24.721,574.219,17,574.219z M17,550.219c0.553,0,1-0.447,1-1c0-0.551-0.447-1-1-1c-0.553,0-1,0.449-1,1
	C16,549.772,16.447,550.219,17,550.219z M17,570.219c-0.553,0-1,0.447-1,1s0.447,1,1,1c0.553,0,1-0.447,1-1
	S17.553,570.219,17,570.219z M28,559.219c-0.553,0-1,0.447-1,1s0.447,1,1,1s1-0.447,1-1S28.553,559.219,28,559.219z M6,559.219
	c-0.553,0-1,0.447-1,1s0.447,1,1,1s1-0.447,1-1S6.553,559.219,6,559.219z"/>
<path fill="#302B2A" d="M32.708-1232.734c-0.391-0.391-1.023-0.391-1.414,0l-4.395,4.394l-0.989-0.989
	c-0.981-0.982-2.694-0.982-3.677,0l-6.224,6.223c-0.49,0.491-0.761,1.144-0.762,1.838c0,0.695,0.271,1.349,0.762,1.839l0.99,0.99
	l-1.414,1.414l-0.989-0.989c-0.982-0.982-2.696-0.981-3.678-0.001l-6.223,6.224c-1.014,1.015-1.014,2.663,0,3.677l0.99,0.99
	l-4.395,4.394c-0.391,0.391-0.391,1.023,0,1.414c0.195,0.195,0.451,0.293,0.707,0.293s0.512-0.098,0.707-0.293l4.395-4.394
	l0.989,0.99c0.491,0.49,1.146,0.761,1.84,0.761c0.692,0,1.347-0.271,1.838-0.762l6.222-6.224c1.015-1.014,1.015-2.662,0-3.676
	l-0.989-0.99l1.414-1.415l0.989,0.99c0.492,0.491,1.146,0.762,1.84,0.762c0.693,0,1.348-0.271,1.838-0.762l6.223-6.225
	c1.014-1.014,1.014-2.663,0-3.677l-0.99-0.989l4.395-4.394C33.099-1231.71,33.099-1232.343,32.708-1232.734z M16.577-1212.36
	l-6.223,6.223c-0.228,0.228-0.622,0.227-0.85,0l-0.989-0.989l2.368-2.369c0.392-0.393,0.392-1.024,0-1.415
	c-0.391-0.391-1.022-0.391-1.413,0l-2.369,2.37l-0.99-0.989c-0.233-0.234-0.233-0.615,0-0.85l6.223-6.224
	c0.113-0.112,0.265-0.176,0.424-0.176c0.16,0,0.313,0.063,0.426,0.177l0.989,0.99l-2.121,2.121c-0.391,0.391-0.391,1.021,0,1.413
	c0.195,0.195,0.451,0.293,0.707,0.293c0.257,0,0.513-0.098,0.707-0.293l2.121-2.121l0.99,0.99
	C16.812-1212.975,16.812-1212.594,16.577-1212.36z M27.892-1223.673l-6.224,6.224c-0.228,0.226-0.622,0.227-0.849,0l-0.99-0.991
	l2.121-2.12c0.391-0.391,0.391-1.022,0-1.414c-0.391-0.391-1.023-0.391-1.414,0l-2.121,2.121l-0.99-0.99
	c-0.112-0.112-0.176-0.264-0.176-0.425c0-0.159,0.063-0.309,0.176-0.423l6.223-6.223c0.113-0.114,0.266-0.178,0.426-0.178
	s0.311,0.063,0.424,0.177l0.99,0.99l-2.369,2.369c-0.391,0.392-0.391,1.024,0,1.414c0.195,0.195,0.451,0.293,0.707,0.293
	s0.512-0.098,0.707-0.293l2.369-2.37l0.99,0.989C28.124-1224.289,28.124-1223.908,27.892-1223.673z"/>
<path fill="#302B2A" d="M30.25-1131.025h-19.5c-1.517,0-2.75,1.289-2.75,2.875v20.625c0,0.275-0.225,0.5-0.5,0.5s-0.5-0.225-0.5-0.5
	v-14.498c0-0.554-0.469-1.041-1.01-1c-0.113,0.001-2.231,0.01-2.24,0.001c-1.517,0-2.75,1.29-2.75,2.875v16.121
	c0,2.757,2.243,5.001,5,5.001v-0.028c0.271,0.028,0.59,0.028,0.945,0.028H28c2.757,0,5-2.243,5-5v-24.125
	C33-1129.736,31.768-1131.025,30.25-1131.025z M31-1104.025c0,1.654-1.346,3-3,3c0,0-21.805,0-22,0c-1.654,0-3-1.346-3-3.001
	v-16.121c0-0.482,0.337-0.875,0.75-0.875h1.125c0.042,0,0.084,0,0.125,0v13.497c0,1.378,1.121,2.5,2.5,2.5s2.5-1.122,2.5-2.5
	v-20.625c0-0.482,0.337-0.875,0.75-0.875h19.5c0.413,0,0.75,0.393,0.75,0.875V-1104.025z M13-1117.025c0.553,0,1-0.447,1-1v-4.514
	l3.152,5.043c0.033,0.054,0.075,0.098,0.116,0.142c0.013,0.014,0.022,0.03,0.036,0.044c0.082,0.08,0.176,0.14,0.276,0.188
	c0.023,0.012,0.049,0.02,0.072,0.028c0.111,0.041,0.227,0.068,0.345,0.068c0.001,0,0.001,0.001,0.001,0.001H18h0.001
	c0.116,0,0.229-0.028,0.343-0.069c0.033-0.013,0.063-0.024,0.094-0.041c0.03-0.016,0.063-0.021,0.094-0.041
	c0.031-0.021,0.05-0.053,0.078-0.076c0.056-0.043,0.104-0.086,0.147-0.139c0.041-0.05,0.074-0.1,0.104-0.155
	c0.031-0.056,0.057-0.11,0.076-0.172c0.021-0.065,0.033-0.13,0.041-0.197c0.004-0.038,0.021-0.07,0.021-0.108v-8
	c0-0.552-0.446-1-1-1c-0.553,0-1,0.448-1,1v4.515l-3.152-5.044c-0.02-0.03-0.051-0.049-0.073-0.077
	c-0.043-0.056-0.088-0.105-0.142-0.149c-0.049-0.041-0.1-0.074-0.154-0.104c-0.056-0.03-0.111-0.057-0.172-0.075
	c-0.066-0.022-0.132-0.033-0.2-0.041c-0.037-0.005-0.068-0.021-0.106-0.021c-0.026,0-0.049,0.014-0.074,0.016
	c-0.068,0.004-0.132,0.021-0.198,0.041c-0.064,0.018-0.126,0.038-0.185,0.069c-0.024,0.012-0.051,0.013-0.073,0.027
	c-0.032,0.02-0.05,0.052-0.079,0.075c-0.055,0.041-0.104,0.086-0.147,0.139c-0.041,0.05-0.074,0.101-0.104,0.155
	c-0.031,0.056-0.057,0.11-0.077,0.173c-0.021,0.064-0.032,0.13-0.04,0.197c-0.004,0.037-0.021,0.069-0.021,0.107v8
	C12-1117.472,12.447-1117.025,13-1117.025z M21-1104.025h8v-6h-8V-1104.025z M28-1127.025h-6c-0.553,0-1,0.448-1,1
	c0,0.553,0.447,1,1,1h6c0.553,0,1-0.447,1-1C29-1126.577,28.553-1127.025,28-1127.025z M28-1123.025h-6c-0.553,0-1,0.448-1,1
	c0,0.553,0.447,1,1,1h6c0.553,0,1-0.447,1-1C29-1122.577,28.553-1123.025,28-1123.025z M28-1119.025h-6c-0.553,0-1,0.448-1,1
	c0,0.553,0.447,1,1,1h6c0.553,0,1-0.447,1-1C29-1118.577,28.553-1119.025,28-1119.025z M18-1110.025h-5c-0.553,0-1,0.448-1,1
	c0,0.553,0.447,1,1,1h5c0.553,0,1-0.447,1-1C19-1109.577,18.553-1110.025,18-1110.025z M18-1106.025h-5c-0.553,0-1,0.448-1,1
	c0,0.553,0.447,1,1,1h5c0.553,0,1-0.447,1-1C19-1105.577,18.553-1106.025,18-1106.025z M28-1115.025H13c-0.553,0-1,0.448-1,1v1
	c0,0.552,0.447,1,1,1h15c0.553,0,1-0.448,1-1v-1C29-1114.577,28.553-1115.025,28-1115.025z"/>
<path fill="#302B2A" d="M32.121-620.153c-0.566-0.567-1.32-0.879-2.121-0.879H4c-0.801,0-1.554,0.312-2.121,0.879
	C1.313-619.586,1-618.834,1-618.032v26c0,0.204,0.021,0.404,0.062,0.6c0.008,0.037,0.022,0.069,0.031,0.105
	c0.037,0.156,0.08,0.312,0.144,0.46c0.007,0.015,0.016,0.025,0.021,0.041c0.147,0.336,0.354,0.646,0.621,0.916
	c0.129,0.129,0.271,0.239,0.417,0.342c0.011,0.008,0.02,0.017,0.028,0.022c0.139,0.095,0.287,0.171,0.439,0.238
	c0.023,0.012,0.047,0.028,0.071,0.039c0.145,0.062,0.294,0.103,0.446,0.139c0.04,0.012,0.077,0.028,0.118,0.036
	c0.195,0.039,0.396,0.062,0.6,0.062H30c0.203,0,0.402-0.021,0.6-0.062c0.041-0.008,0.078-0.024,0.119-0.036
	c0.15-0.036,0.301-0.077,0.445-0.139c0.025-0.011,0.049-0.028,0.074-0.041c0.15-0.068,0.299-0.143,0.438-0.236
	c0.01-0.007,0.018-0.016,0.027-0.022c0.146-0.103,0.289-0.213,0.418-0.342c0.266-0.267,0.469-0.575,0.617-0.909
	c0.008-0.018,0.02-0.031,0.025-0.048c0.063-0.147,0.104-0.304,0.143-0.459c0.01-0.036,0.023-0.069,0.031-0.106
	c0.039-0.195,0.063-0.396,0.063-0.6v-26C33-618.834,32.688-619.586,32.121-620.153z M3-614.79l9.758,9.758L3-595.272V-614.79z
	 M30.922-591.645c-0.049,0.118-0.121,0.227-0.215,0.319c-0.094,0.095-0.203,0.166-0.32,0.216c-0.119,0.05-0.25,0.078-0.387,0.078H4
	c-0.137,0-0.268-0.028-0.386-0.078s-0.228-0.121-0.321-0.216c-0.094-0.093-0.165-0.201-0.215-0.319S3-591.895,3-592.032
	c0-0.267,0.104-0.517,0.289-0.701l10.883-10.885l0.707,0.707c0.566,0.566,1.32,0.879,2.121,0.879s1.555-0.313,2.121-0.879
	l0.707-0.707l10.883,10.885c0.188,0.186,0.289,0.436,0.289,0.701C31-591.895,30.973-591.763,30.922-591.645z M31-595.274
	l-9.758-9.758l9.758-9.76V-595.274z M30.711-617.331l-13.004,13.006c-0.379,0.378-1.035,0.378-1.414,0L3.289-617.331
	C3.104-617.516,3-617.766,3-618.032c0-0.269,0.104-0.52,0.293-0.706c0.189-0.189,0.44-0.294,0.707-0.294h26
	c0.268,0,0.518,0.104,0.707,0.294C30.896-618.55,31-618.3,31-618.032C31-617.766,30.896-617.516,30.711-617.331z"/>
<path fill="#302B2A" d="M31.277-1537.286c-1.109-1.11-2.586-1.722-4.156-1.722c-1.568,0-3.045,0.61-4.154,1.72l-17.672,17.571
	c-0.104,0.104-0.185,0.229-0.234,0.367l-4,11c-0.13,0.356-0.047,0.756,0.215,1.031c0.191,0.201,0.454,0.311,0.724,0.311
	c0.098,0,0.196-0.014,0.293-0.044l9.949-3.051c0.156-0.048,0.299-0.134,0.414-0.249l18.622-18.621
	c1.111-1.109,1.723-2.587,1.723-4.157C32.998-1534.699,32.389-1536.175,31.277-1537.286z M11.092-1511.842l-3.724,1.144
	c-0.218-0.636-0.556-1.201-1.016-1.661c-0.402-0.401-0.867-0.709-1.356-0.961l1.703-4.687H9v2c0,0.553,0.447,1,1,1h1.766
	L11.092-1511.842z M25.813-1526.336l-12.184,12.185l0.35-1.646c0.063-0.297-0.012-0.604-0.201-0.838
	c-0.191-0.235-0.476-0.371-0.778-0.371h-2v-2c0-0.552-0.447-1-1-1H8.423l11.893-11.824l0.013,0.01
	c0.731-0.732,1.706-1.136,2.741-1.136s2.011,0.402,2.742,1.136c0.732,0.733,1.138,1.707,1.138,2.743
	S26.546-1527.069,25.813-1526.336z M29.863-1530.386l-0.934,0.934c-0.09-1.43-0.683-2.761-1.703-3.782
	c-1.021-1.022-2.355-1.614-3.785-1.703l0.936-0.931l0.002-0.002c0.732-0.733,1.706-1.137,2.742-1.137
	c1.035,0,2.01,0.403,2.742,1.136c0.732,0.731,1.137,1.707,1.137,2.742C31-1532.092,30.598-1531.119,29.863-1530.386z
	 M23.293-1530.714l-10,10c-0.391,0.391-0.391,1.023,0,1.413c0.195,0.196,0.451,0.294,0.707,0.294s0.512-0.098,0.707-0.293l10-10
	c0.391-0.39,0.391-1.022,0-1.413C24.316-1531.105,23.684-1531.105,23.293-1530.714z"/>
<path fill="#302B2A" d="M32.991-722.019c0-0.037,0-0.072-0.004-0.106c-0.004-0.035-0.004-0.07-0.01-0.104
	c-0.007-0.021-0.017-0.038-0.021-0.057c-0.013-0.037-0.022-0.073-0.039-0.108c-0.008-0.021-0.013-0.043-0.021-0.063
	c-0.018-0.03-0.037-0.059-0.057-0.089c-0.018-0.028-0.037-0.057-0.059-0.083c-0.029-0.038-0.059-0.075-0.094-0.109
	c-0.008-0.008-0.013-0.019-0.021-0.025c-0.017-0.014-0.035-0.017-0.052-0.028c-0.016-0.016-0.032-0.028-0.051-0.041
	c-0.014-0.011-0.02-0.023-0.033-0.032c-0.004-0.003-0.01-0.003-0.014-0.005c-0.006-0.006-0.01-0.012-0.018-0.015
	c-0.037-0.022-0.08-0.032-0.121-0.049c-0.031-0.014-0.063-0.028-0.096-0.038c-0.029-0.011-0.059-0.019-0.09-0.023
	c-0.037-0.008-0.07-0.008-0.107-0.013c-0.045-0.004-0.09-0.014-0.135-0.013c-0.012,0.002-0.023,0.007-0.035,0.008
	c-0.023,0.001-0.047,0.01-0.072,0.014c-0.037,0.006-0.072,0.01-0.107,0.02c-0.041,0.012-0.08,0.024-0.118,0.042
	c-0.031,0.013-0.062,0.028-0.093,0.046c-0.024,0.014-0.055,0.023-0.08,0.04c-0.008,0.005-0.016,0.007-0.021,0.011h-0.002
	L1.434-701.85c-0.359,0.25-0.512,0.704-0.381,1.12c0.131,0.415,0.518,0.698,0.953,0.698h10v8c0,0.038,0.018,0.068,0.021,0.104
	c0.008,0.069,0.02,0.135,0.039,0.2c0.021,0.062,0.047,0.116,0.076,0.172c0.031,0.056,0.064,0.105,0.105,0.154
	c0.043,0.054,0.092,0.099,0.146,0.141c0.029,0.023,0.045,0.056,0.076,0.074c0.031,0.019,0.064,0.027,0.096,0.043
	c0.033,0.017,0.063,0.029,0.096,0.043c0.113,0.041,0.227,0.069,0.344,0.069h0.002c0.119-0.001,0.234-0.028,0.346-0.07
	c0.023-0.009,0.047-0.017,0.07-0.027c0.102-0.046,0.195-0.105,0.277-0.187c0.014-0.014,0.023-0.029,0.035-0.043
	c0.041-0.045,0.082-0.086,0.115-0.139l3.613-5.71c0.023,0.017,0.04,0.039,0.064,0.053l11,6.001c0.295,0.158,0.647,0.164,0.947,0.006
	c0.295-0.156,0.493-0.451,0.526-0.785l2.989-29.99C32.999-721.958,32.991-721.988,32.991-722.019z M12.565-702.035H5.183
	l20.129-14.09L12.565-702.035z M14.008-695.482v-5.166l10.903-12.051L14.008-695.482z M28.163-693.634l-9.631-5.253l12.055-19.036
	L28.163-693.634z"/>
<path fill="#302B2A" d="M17-1437.007c-4.411,0-8,3.589-8,8v18c0,3.309,2.691,6,6,6c3.309,0,6-2.691,6-6v-18c0-2.206-1.794-4-4-4
	s-4,1.794-4,4v15c0,0.552,0.448,1,1,1c0.553,0,1-0.448,1-1v-15c0-1.104,0.897-2,2-2c1.104,0,2,0.896,2,2v18c0,2.206-1.794,4-4,4
	c-2.205,0-4-1.794-4-4v-18c0-3.309,2.691-6,6-6c3.309,0,6,2.691,6,6v15c0,0.552,0.447,1,1,1s1-0.448,1-1v-15
	C25-1433.418,21.411-1437.007,17-1437.007z"/>
<path fill="#302B2A" d="M17,356.217c-8.972,0-16,3.516-16,8c0,4.486,7.028,8,16,8c8.973,0,16-3.514,16-8S25.973,356.217,17,356.217z
	 M3,364.217c0-2.1,3.151-4.371,8.129-5.414C9.812,360.229,9,362.127,9,364.217s0.812,3.988,2.129,5.416
	C6.151,368.59,3,366.315,3,364.217z M17,370.217c-3.309,0-6-2.691-6-6s2.691-6,6-6c3.309,0,6,2.691,6,6S20.309,370.217,17,370.217z
	 M22.871,369.633c1.316-1.428,2.129-3.326,2.129-5.416s-0.813-3.988-2.129-5.414c4.979,1.043,8.129,3.314,8.129,5.414
	S27.85,368.59,22.871,369.633z M17,361.217c-1.654,0-3,1.346-3,3s1.346,3,3,3c1.654,0,3-1.346,3-3S18.654,361.217,17,361.217z
	 M17,365.217c-0.552,0-1-0.447-1-1c0-0.551,0.448-1,1-1c0.553,0,1,0.449,1,1C18,364.77,17.553,365.217,17,365.217z"/>
<path fill="#302B2A" d="M23,646.219c-0.309,0-0.615,0.02-0.922,0.047c-0.111,0.01-0.223,0.027-0.334,0.041
	c-0.188,0.023-0.373,0.051-0.559,0.086c-0.135,0.025-0.27,0.053-0.4,0.082c-0.154,0.035-0.307,0.076-0.459,0.119
	c-0.145,0.039-0.287,0.078-0.43,0.125c-0.129,0.041-0.254,0.092-0.381,0.139c-0.334,0.125-0.66,0.268-0.975,0.424
	c-0.064,0.031-0.129,0.061-0.191,0.094c-0.166,0.088-0.326,0.186-0.488,0.281c-0.088,0.055-0.178,0.105-0.266,0.162
	c-0.155,0.102-0.306,0.207-0.456,0.314c-0.046,0.033-0.094,0.063-0.14,0.098c-1.729-1.303-3.829-2.012-6-2.012
	c-5.515,0-10,4.484-10,10c0,9.051,5.819,17.238,15.567,21.9c0.138,0.066,0.284,0.1,0.433,0.1c0.147,0,0.295-0.033,0.432-0.1
	C27.18,673.458,33,665.27,33,656.219C33,650.704,28.514,646.219,23,646.219z M17.001,676.106c-8.775-4.354-14-11.758-14-19.887
	c0-4.412,3.589-8,8-8c1.613,0,3.177,0.498,4.502,1.406c-1.553,1.762-2.502,4.064-2.502,6.594c0,0.551,0.446,1,1,1
	c0.553,0,1-0.449,1-1c0-2.381,1.052-4.518,2.708-5.984c0.152-0.137,0.313-0.266,0.475-0.389c0.037-0.027,0.074-0.055,0.111-0.082
	c0.158-0.117,0.322-0.227,0.488-0.33c0.047-0.029,0.092-0.059,0.139-0.086c0.162-0.096,0.326-0.188,0.494-0.271
	c0.057-0.027,0.117-0.057,0.176-0.084c0.16-0.076,0.322-0.148,0.486-0.213c0.072-0.029,0.146-0.055,0.223-0.082
	c0.154-0.057,0.311-0.109,0.469-0.154c0.096-0.027,0.191-0.053,0.287-0.074c0.143-0.037,0.285-0.074,0.432-0.104
	c0.131-0.023,0.266-0.041,0.398-0.061c0.113-0.016,0.229-0.035,0.344-0.047c0.254-0.025,0.512-0.039,0.771-0.039c4.41,0,8,3.588,8,8
	C31,664.348,25.775,671.752,17.001,676.106z M23,650.219c-0.553,0-1,0.449-1,1c0,0.553,0.447,1,1,1c2.207,0,4,1.795,4,4
	c0,0.553,0.447,1,1,1s1-0.447,1-1C29,652.911,26.309,650.219,23,650.219z"/>
<path fill="#302B2A" d="M17-1007.024c4.963,0,9-4.936,9-11c0-6.065-4.038-11.001-9-11.001c-2.447,0-4.734,1.174-6.438,3.305
	c-1.653,2.065-2.562,4.799-2.562,7.696C8-1011.959,12.037-1007.024,17-1007.024z M17-1027.024c3.859,0,7,4.037,7,9
	c0,4.962-3.141,9-7,9c-3.859,0-7-4.038-7.001-9C9.999-1022.987,13.14-1027.024,17-1027.024z M24-1009.024c-0.553,0-1,0.447-1,1
	c0,0.552,0.447,1,1,1c3.859,0,7,3.14,7,6.999c0,0.552-0.449,1.001-1,1.001H4c-0.551,0-1-0.449-1-1.001c0-3.859,3.141-6.999,7-6.999
	c0.553,0,1-0.448,1-1c0-0.553-0.447-1-1-1c-4.963,0-9,4.037-9,8.999c0,1.655,1.346,3.001,3,3.001h22.5H30c1.654,0,3-1.346,3-3.001
	C33-1004.987,28.963-1009.024,24-1009.024z"/>
<path fill="#302B2A" d="M15.5-905.023c4.137,0,7.5-4.094,7.5-9.126s-3.363-9.125-7.5-9.125c-2.046,0-3.956,0.979-5.378,2.755
	c-1.369,1.712-2.123,3.974-2.122,6.37C8-909.117,11.364-905.023,15.5-905.023z M15.5-921.274c3.032,0,5.5,3.197,5.5,7.125
	c0,3.929-2.468,7.126-5.5,7.126s-5.5-3.197-5.502-7.126C9.998-918.077,12.466-921.274,15.5-921.274z M21.799-906.023
	c-0.553,0-1,0.447-1,1c0,0.552,0.447,1,1,1c3.419,0,6.201,2.781,6.201,6.2c0,0.439-0.359,0.8-0.801,0.8h-23.4
	c-0.44,0-0.799-0.359-0.799-0.8c0-3.419,2.781-6.2,6.199-6.2c0.553,0,1-0.448,1-1c0-0.553-0.447-1-1-1
	c-4.521,0-8.199,3.678-8.199,8.2c0,1.544,1.256,2.8,2.799,2.8h20.25h3.15c1.544,0,2.801-1.256,2.801-2.8
	C30-902.345,26.32-906.023,21.799-906.023z M16.231-924.385c0.716-0.424,1.479-0.638,2.269-0.638c3.032,0,5.5,3.196,5.5,7.124
	c0,0.705-0.078,1.396-0.232,2.057c-0.127,0.538,0.207,1.076,0.744,1.202c0.077,0.02,0.153,0.026,0.229,0.026
	c0.454,0,0.864-0.312,0.973-0.771c0.188-0.811,0.286-1.654,0.286-2.514c0-5.031-3.363-9.125-7.5-9.125
	c-1.137,0-2.272,0.317-3.286,0.917c-0.476,0.281-0.633,0.895-0.352,1.37C15.143-924.262,15.758-924.104,16.231-924.385z M25-910.024
	c-0.553,0-1,0.448-1,1.001c0,0.552,0.447,0.999,1,0.999c3.419,0,6,2.849,6,6.268c0,0.114-0.021,0.226-0.068,0.326
	c-0.224,0.505,0.004,1.096,0.508,1.32c0.133,0.059,0.271,0.086,0.406,0.086c0.383,0,0.748-0.221,0.914-0.594
	c0.159-0.359,0.24-0.742,0.24-1.14C33-906.278,29.521-910.024,25-910.024z"/>
<path fill="#302B2A" d="M26.25,754.219H25h-1.25c-0.413,0-0.75-0.393-0.75-0.875v-1.125v-1.125c0-1.586-1.232-2.875-2.75-2.875H19
	H7.75c-1.517,0-2.75,1.289-2.75,2.875v26.25c0,1.586,1.233,2.875,2.75,2.875h18.5c1.518,0,2.75-1.289,2.75-2.875v-19.125v-1.125
	C29,755.508,27.768,754.219,26.25,754.219z M27,758.219v19.125c0,0.482-0.337,0.875-0.75,0.875H7.75c-0.413,0-0.75-0.393-0.75-0.875
	v-26.25c0-0.482,0.337-0.875,0.75-0.875H19h1.25c0.413,0,0.75,0.393,0.75,0.875v1.125v1.125c0,1.586,1.232,2.875,2.75,2.875H25h1.25
	c0.413,0,0.75,0.393,0.75,0.875V758.219z M10,758.219h8c0.553,0,1-0.447,1-1s-0.447-1-1-1h-8c-0.553,0-1,0.447-1,1
	S9.447,758.219,10,758.219z M24,760.219H10c-0.553,0-1,0.447-1,1s0.447,1,1,1h14c0.553,0,1-0.447,1-1S24.553,760.219,24,760.219z
	 M24,764.219H10c-0.553,0-1,0.447-1,1s0.447,1,1,1h14c0.553,0,1-0.447,1-1S24.553,764.219,24,764.219z M24,768.219H10
	c-0.553,0-1,0.447-1,1s0.447,1,1,1h14c0.553,0,1-0.447,1-1S24.553,768.219,24,768.219z M24,772.219H10c-0.553,0-1,0.447-1,1
	s0.447,1,1,1h14c0.553,0,1-0.447,1-1S24.553,772.219,24,772.219z"/>
<path fill="#302B2A" d="M21.504,152.217c-6.347,0-11.511,5.158-11.511,11.5c0,2.084,0.565,4.033,1.539,5.721l-9.668,9.658
	c-1.173,1.172-1.173,3.072,0,4.242c0.586,0.586,1.354,0.879,2.123,0.879s1.537-0.293,2.123-0.879l9.668-9.658
	c1.688,0.973,3.641,1.537,5.726,1.537c6.348,0,11.512-5.158,11.512-11.5S27.852,152.217,21.504,152.217z M4.695,181.924
	c-0.256,0.256-0.554,0.293-0.708,0.293c-0.154,0-0.452-0.037-0.708-0.293c-0.255-0.254-0.293-0.551-0.293-0.707
	c0-0.154,0.038-0.451,0.293-0.705l9.415-9.408c0.431,0.512,0.904,0.984,1.415,1.416L4.695,181.924z M21.504,173.217
	c-5.243,0-9.509-4.262-9.509-9.5s4.266-9.5,9.509-9.5c5.244,0,9.51,4.262,9.51,9.5S26.748,173.217,21.504,173.217z M26.773,158.317
	c-0.392-0.391-1.024-0.391-1.416,0s-0.392,1.023,0,1.414c2.199,2.199,2.199,5.773,0,7.971c-0.391,0.391-0.391,1.023,0,1.414
	c0.197,0.195,0.453,0.293,0.709,0.293s0.512-0.098,0.707-0.293C29.753,166.141,29.753,161.297,26.773,158.317z"/>
<path fill="#302B2A" d="M17-519.032c-8.822,0-16,7.178-16,16s7.178,16,16,16c8.822,0,16-7.178,16-16S25.822-519.032,17-519.032z
	 M17-489.032c-7.72,0-14-6.28-14-14c0-7.721,6.28-14,14-14c7.721,0,14,6.279,14,14C31-495.312,24.721-489.032,17-489.032z
	 M19.613-501.589c0.238-0.43,0.387-0.916,0.387-1.441c0-1.302-0.839-2.401-2-2.815v-8.185c0-0.552-0.447-1-1-1c-0.553,0-1,0.448-1,1
	v8.185c-1.161,0.414-2,1.515-2,2.815c0,1.653,1.346,3,3,3c0.396,0,0.773-0.081,1.121-0.222l4.172,4.171
	c0.195,0.194,0.451,0.293,0.707,0.293s0.512-0.099,0.707-0.293c0.391-0.391,0.391-1.022,0-1.413L19.613-501.589z M17-502.032
	c-0.552,0-1-0.448-1-1c0-0.551,0.448-1,1-1c0.553,0,1,0.449,1,1C18-502.48,17.553-502.032,17-502.032z"/>
<path fill="#302B2A" d="M32.119-1316.188c-1.428-0.185-2.506-1.399-2.506-2.829c0-1.429,1.078-2.646,2.506-2.829
	c0.283-0.037,0.537-0.192,0.699-0.43c0.16-0.237,0.213-0.531,0.142-0.809c-0.388-1.527-0.992-2.987-1.798-4.342
	c-0.146-0.245-0.391-0.418-0.672-0.472c-0.283-0.053-0.572,0.016-0.799,0.191c-1.104,0.852-2.785,0.756-3.771-0.23
	c-1.012-1.01-1.109-2.631-0.23-3.771c0.176-0.227,0.246-0.518,0.191-0.798c-0.054-0.281-0.225-0.526-0.471-0.674
	c-1.352-0.804-2.811-1.407-4.342-1.798c-0.278-0.069-0.571-0.019-0.809,0.143c-0.236,0.16-0.395,0.416-0.431,0.698
	c-0.185,1.429-1.399,2.504-2.83,2.504s-2.646-1.075-2.828-2.503c-0.037-0.283-0.193-0.539-0.43-0.699
	c-0.237-0.16-0.53-0.211-0.809-0.143c-1.531,0.391-2.992,0.994-4.343,1.798c-0.246,0.146-0.417,0.393-0.471,0.674
	c-0.054,0.28,0.017,0.571,0.191,0.798c0.88,1.14,0.782,2.761-0.229,3.771c-0.985,0.984-2.668,1.082-3.772,0.229
	c-0.227-0.176-0.517-0.242-0.799-0.191c-0.281,0.054-0.525,0.226-0.672,0.472c-0.807,1.355-1.411,2.816-1.798,4.343
	c-0.07,0.276-0.018,0.57,0.143,0.808c0.161,0.236,0.416,0.393,0.699,0.43c1.428,0.185,2.504,1.4,2.504,2.829
	s-1.076,2.646-2.504,2.829c-0.283,0.036-0.538,0.192-0.699,0.429c-0.16,0.237-0.213,0.531-0.143,0.81
	c0.387,1.525,0.992,2.986,1.798,4.342c0.146,0.246,0.391,0.418,0.672,0.472c0.28,0.052,0.572-0.017,0.798-0.189
	c1.108-0.854,2.789-0.755,3.772,0.229c1.011,1.012,1.109,2.632,0.229,3.771c-0.175,0.227-0.244,0.518-0.19,0.799
	c0.054,0.28,0.226,0.525,0.471,0.672c1.352,0.804,2.813,1.408,4.342,1.798c0.081,0.021,0.164,0.03,0.246,0.03
	c0.198,0,0.395-0.059,0.563-0.173c0.236-0.161,0.393-0.416,0.43-0.699c0.183-1.428,1.398-2.504,2.828-2.504
	c1.429,0,2.646,1.076,2.83,2.504c0.037,0.284,0.193,0.539,0.431,0.699c0.236,0.162,0.529,0.213,0.81,0.143
	c1.527-0.39,2.988-0.994,4.34-1.798c0.244-0.146,0.416-0.391,0.471-0.672s-0.016-0.571-0.189-0.798
	c-0.879-1.142-0.779-2.762,0.229-3.771c0.985-0.984,2.667-1.081,3.771-0.229c0.227,0.175,0.518,0.244,0.799,0.189
	c0.281-0.054,0.525-0.226,0.672-0.472c0.806-1.354,1.41-2.813,1.798-4.342c0.071-0.277,0.021-0.571-0.142-0.809
	C32.656-1315.995,32.402-1316.151,32.119-1316.188z M29.922-1312.502c-1.802-0.804-4.018-0.409-5.415,0.99
	c-1.44,1.441-1.795,3.611-0.991,5.415c-0.64,0.322-1.302,0.598-1.981,0.82c-0.707-1.843-2.491-3.128-4.532-3.128
	c-2.04,0-3.824,1.285-4.53,3.128c-0.681-0.224-1.344-0.498-1.982-0.82c0.805-1.803,0.451-3.974-0.991-5.416
	c-0.914-0.914-2.129-1.417-3.422-1.417c-0.688,0-1.369,0.148-1.994,0.428c-0.323-0.641-0.598-1.304-0.821-1.983
	c1.844-0.706,3.129-2.491,3.129-4.53c0-2.04-1.285-3.824-3.129-4.531c0.224-0.68,0.498-1.343,0.821-1.981
	c0.625,0.279,1.308,0.428,1.995,0.428c1.293,0,2.508-0.504,3.422-1.418c1.443-1.441,1.796-3.613,0.99-5.417
	c0.639-0.322,1.301-0.596,1.982-0.82c0.706,1.845,2.49,3.128,4.53,3.128c2.041,0,3.825-1.283,4.532-3.128
	c0.681,0.226,1.343,0.498,1.981,0.82c-0.806,1.804-0.451,3.976,0.991,5.417c0.914,0.914,2.129,1.417,3.421,1.417
	c0.688,0,1.369-0.147,1.994-0.427c0.323,0.64,0.598,1.302,0.821,1.981c-1.845,0.707-3.13,2.491-3.13,4.531
	c0,2.039,1.285,3.824,3.13,4.53C30.52-1313.806,30.245-1313.143,29.922-1312.502z M17.001-1327.694
	c-4.784,0-8.677,3.893-8.677,8.678c0,4.784,3.893,8.677,8.677,8.677c4.785,0,8.678-3.893,8.678-8.677
	C25.68-1323.802,21.786-1327.694,17.001-1327.694z M17.001-1312.34c-3.682,0-6.677-2.994-6.677-6.677
	c0-3.682,2.995-6.678,6.677-6.678s6.678,2.996,6.678,6.678C23.68-1315.334,20.684-1312.34,17.001-1312.34z M17.001-1323.759
	c-2.614,0-4.741,2.129-4.741,4.742c0,2.614,2.127,4.741,4.741,4.741s4.743-2.127,4.743-4.741
	C21.744-1321.63,19.615-1323.759,17.001-1323.759z M17.001-1317.146c-1.033,0-1.871-0.838-1.871-1.871s0.838-1.871,1.871-1.871
	c1.034,0,1.872,0.838,1.872,1.871S18.035-1317.146,17.001-1317.146z"/>
<path fill="#302B2A" d="M30.125,449.247h-4.25v-4.279c0-1.518-1.289-2.75-2.875-2.75H3.875c-1.585,0-2.875,1.232-2.875,2.75v19.221
	c0,0.797,0.313,1.549,0.881,2.121c0.569,0.566,1.322,0.879,2.12,0.879c0.802,0,1.555-0.313,2.108-0.865l2.141-2.068
	c0.348,1.146,1.441,1.992,2.75,1.992h8.525c0.666,0,1.295,0.262,1.779,0.744l6.572,6.348c0.566,0.566,1.32,0.881,2.121,0.881
	c0.799,0,1.551-0.314,2.123-0.883c0.566-0.568,0.879-1.32,0.879-2.117v-19.221C33,450.479,31.711,449.247,30.125,449.247z
	 M4.708,464.895c-0.381,0.379-1.028,0.379-1.413-0.002C3.104,464.7,3,464.458,3,464.188v-19.221c0-0.414,0.394-0.75,0.875-0.75H23
	c0.482,0,0.875,0.336,0.875,0.75v11.5c0,0.414-0.393,0.75-0.875,0.75h-8.524c-1.201,0-2.332,0.467-3.169,1.307L4.708,464.895z
	 M31,471.217c0,0.268-0.104,0.512-0.293,0.705c-0.389,0.385-1.021,0.393-1.428-0.012l-6.572-6.346
	c-0.85-0.852-1.98-1.318-3.182-1.318H11c-0.481,0-0.875-0.338-0.875-0.75v-1.053l2.582-2.494c0.474-0.473,1.102-0.732,1.769-0.732
	H23c1.586,0,2.875-1.232,2.875-2.75v-5.221h4.25c0.482,0,0.875,0.336,0.875,0.75V471.217z M13.5,454.217c0.828,0,1.5-0.672,1.5-1.5
	s-0.672-1.5-1.5-1.5s-1.5,0.672-1.5,1.5S12.672,454.217,13.5,454.217z M7.5,451.217c-0.828,0-1.5,0.672-1.5,1.5s0.672,1.5,1.5,1.5
	s1.5-0.672,1.5-1.5S8.328,451.217,7.5,451.217z M19.5,454.217c0.828,0,1.5-0.672,1.5-1.5s-0.672-1.5-1.5-1.5s-1.5,0.672-1.5,1.5
	S18.672,454.217,19.5,454.217z"/>
<path fill="#302B2A" d="M23.666,280.883H4.332c-1.836,0-3.332-1.496-3.332-3.332v-20c0-1.838,1.496-3.334,3.332-3.334H15
	c0.285,0,0.538,0.182,0.631,0.451L24.297,280c0.069,0.203,0.036,0.428-0.088,0.604C24.083,280.78,23.883,280.883,23.666,280.883z
	 M4.332,255.551c-1.103,0-2,0.896-2,2v20c0,1.102,0.897,2,2,2h18.4l-8.209-24H4.332L4.332,255.551z"/>
<path fill="#302B2A" d="M29.666,286.217H19c-0.277,0-0.525-0.172-0.625-0.432l-1.999-5.334c-0.131-0.346,0.045-0.729,0.389-0.859
	c0.345-0.127,0.729,0.045,0.858,0.391l1.84,4.9h10.203c1.104,0,2.001-0.896,2.001-2v-20c0-1.104-0.897-2-2.001-2H16.999
	c-0.368,0-0.666-0.297-0.666-0.666c0-0.367,0.298-0.666,0.666-0.666h12.667c1.838,0,3.334,1.494,3.334,3.332v20
	C33,284.721,31.504,286.217,29.666,286.217z"/>
<path fill="#302B2A" d="M19,286.217c-0.156,0-0.313-0.055-0.439-0.164c-0.275-0.244-0.305-0.666-0.063-0.943l4.666-5.332
	c0.243-0.279,0.665-0.305,0.941-0.063s0.306,0.664,0.063,0.939l-4.666,5.334C19.368,286.141,19.186,286.217,19,286.217z"/>
<path fill="#302B2A" d="M13.667,272.883c-0.276,0-0.531-0.168-0.629-0.441l-2.706-7.576l-2.704,7.576
	c-0.124,0.346-0.508,0.527-0.853,0.404c-0.347-0.125-0.528-0.506-0.404-0.854l3.334-9.334c0.189-0.529,1.067-0.529,1.255,0
	l3.332,9.334c0.124,0.348-0.056,0.729-0.402,0.854C13.816,272.874,13.741,272.883,13.667,272.883z"/>
<path fill="#302B2A" d="M11.666,268.883H9c-0.368,0-0.668-0.299-0.668-0.666c0-0.369,0.3-0.666,0.668-0.666h2.666
	c0.368,0,0.667,0.297,0.667,0.666C12.333,268.584,12.034,268.883,11.666,268.883z"/>
<path fill="#302B2A" d="M29.666,268.883h-9.334c-0.367,0-0.666-0.299-0.666-0.666c0-0.369,0.299-0.666,0.666-0.666h9.334
	c0.368,0,0.667,0.297,0.667,0.666C30.333,268.584,30.034,268.883,29.666,268.883z"/>
<path fill="#302B2A" d="M24.333,268.883c-0.368,0-0.667-0.299-0.667-0.666v-1.334c0-0.367,0.299-0.666,0.667-0.666
	S25,266.516,25,266.883v1.334C25,268.584,24.701,268.883,24.333,268.883z"/>
<path fill="#302B2A" d="M22.332,276.885c-0.209,0-0.413-0.1-0.543-0.281c-0.213-0.299-0.145-0.715,0.156-0.93
	c2.92-2.072,5.055-6.303,5.055-7.455c0-0.367,0.298-0.666,0.666-0.666c0.367,0,0.666,0.299,0.666,0.666
	c0,1.756-2.568,6.379-5.613,8.543C22.604,276.844,22.467,276.885,22.332,276.885z"/>
<path fill="#302B2A" d="M27.666,278.217c-0.16,0-0.322-0.057-0.449-0.174c-0.484-0.443-4.742-4.377-5.502-6.242
	c-0.139-0.34,0.027-0.73,0.368-0.869c0.337-0.137,0.729,0.027,0.867,0.367c0.546,1.342,3.913,4.611,5.167,5.76
	c0.271,0.25,0.289,0.668,0.041,0.941C28.025,278.143,27.846,278.217,27.666,278.217z"/>
<path id="book_2_" fill="#302B2A" d="M8.032-1609.007c-2.114,0-3.832-1.719-3.832-3.84v-24.961c0-1.778,1.429-3.199,3.191-3.199
	H29.8v1.279h-0.646c-1.047,0-1.916,0.86-1.916,1.92c0,1.068,0.859,1.92,1.916,1.92H29.8v26.881H10.6v-26.88h16
	c0,0-0.64-1.011-0.64-1.954c0-0.942,0.64-1.887,0.64-1.887H7.391c-1.055,0-1.91,0.854-1.91,1.92c0,1.062,0.854,1.92,1.91,1.92h1.93
	v26.881H8.032z"/>
<path fill="#302B2A" d="M25.342-117.769H9.658v-30h15.684c0.553,0,1-0.447,1-1s-0.447-1-1-1H8.658c-0.553,0-1,0.447-1,1v32
	c0,0.553,0.447,1,1,1h16.684c0.553,0,1-0.447,1-1C26.342-117.32,25.895-117.769,25.342-117.769z"/>
<path fill="#302B2A" d="M33-227.4c0.001-0.271-0.102-0.541-0.309-0.746c-0.004-0.006-0.01-0.006-0.016-0.01l-6.564-6.566
	c-0.41-0.41-1.077-0.41-1.488,0c-0.412,0.412-0.412,1.08,0,1.49l4.779,4.781H2.054c-0.582,0-1.054,0.473-1.054,1.055
	s0.472,1.053,1.054,1.053h27.344l-4.774,4.775c-0.412,0.412-0.412,1.08,0,1.49c0.205,0.207,0.476,0.309,0.744,0.309
	s0.539-0.102,0.745-0.309l6.563-6.563c0.104-0.1,0.188-0.219,0.243-0.354C32.973-227.123,33-227.261,33-227.4z"/>
<path fill="#302B2A" d="M16.999-411.031v3c0,0.369,0.203,0.707,0.528,0.883c0.146,0.078,0.311,0.117,0.473,0.117
	c0.193,0,0.387-0.057,0.555-0.168l6-4.001c0.277-0.187,0.445-0.497,0.445-0.831c0-0.335-0.168-0.646-0.445-0.832l-6-4
	c-0.307-0.206-0.703-0.226-1.025-0.05C17.203-416.739,17-416.4,17-416.031v3c-6.617,0-12,5.383-12,12c0,0.553,0.447,1,1,1
	c0.554,0,1-0.447,1-1C6.999-406.544,11.485-411.031,16.999-411.031z M19-414.163l3.197,2.132L19-409.9V-414.163z M28-402.031
	c-0.553,0-1,0.447-1,1c0,5.514-4.486,10-10.001,10v-3c0-0.369-0.203-0.707-0.527-0.883c-0.325-0.176-0.721-0.154-1.026,0.051l-6,4
	c-0.279,0.186-0.446,0.498-0.446,0.832s0.167,0.645,0.445,0.832l6,4c0.168,0.109,0.361,0.168,0.555,0.168
	c0.162,0,0.324-0.039,0.473-0.119c0.324-0.174,0.527-0.512,0.527-0.881v-3c6.618,0,12.001-5.383,12.001-12
	C29-401.583,28.553-402.031,28-402.031z M14.999-387.9l-3.196-2.131l3.196-2.131V-387.9z"/>
<path fill="#302B2A" d="M29.083-311.03H11.915v-3c0-0.369-0.203-0.707-0.528-0.881c-0.325-0.176-0.72-0.156-1.026,0.049l-6,4
	c-0.278,0.186-0.445,0.498-0.445,0.832s0.167,0.646,0.445,0.832l6,4c0.168,0.111,0.361,0.168,0.555,0.168
	c0.162,0,0.324-0.039,0.472-0.117c0.325-0.174,0.528-0.514,0.528-0.883v-3h17.168c0.554,0,1-0.447,1-1
	C30.084-310.581,29.636-311.03,29.083-311.03z M6.718-310.03l3.197-2.131v2.117c0,0.004-0.003,0.01-0.003,0.014
	c0,0.006,0.003,0.01,0.003,0.016v2.115L6.718-310.03z"/>
<path fill="#302B2A" d="M33.999,70.225c0.001-0.258-0.097-0.516-0.292-0.713c-0.008-0.008-0.02-0.01-0.025-0.018L22.711,58.524
	c-0.391-0.391-1.023-0.391-1.414,0s-0.391,1.023,0,1.414l9.289,9.289H1c-0.553,0-1,0.449-1,1c0,0.553,0.447,1,1,1h29.577
	l-9.28,9.283c-0.391,0.391-0.391,1.021,0,1.414c0.195,0.193,0.451,0.293,0.707,0.293s0.512-0.1,0.707-0.293L33.68,70.954
	c0.104-0.098,0.188-0.211,0.243-0.344C33.975,70.487,34,70.358,34,70.227l0,0L33.999,70.225z"/>
<g>
	<path fill="#302B2A" d="M10.125-803.022c4.137,0,7.5-4.094,7.5-9.126s-3.363-9.125-7.5-9.125c-2.046,0-3.956,0.979-5.378,2.755
		c-1.369,1.712-2.123,3.975-2.122,6.37C2.625-807.116,5.989-803.022,10.125-803.022z M10.125-819.273c3.032,0,5.5,3.196,5.5,7.125
		s-2.468,7.126-5.5,7.126s-5.5-3.197-5.502-7.126C4.623-816.077,7.091-819.273,10.125-819.273z M16.424-804.022
		c-0.553,0-1,0.447-1,1c0,0.552,0.447,1,1,1c3.419,0,6.201,2.781,6.201,6.2c0,0.439-0.359,0.8-0.801,0.8h-23.4
		c-0.44,0-0.799-0.359-0.799-0.8c0-3.419,2.781-6.2,6.199-6.2c0.553,0,1-0.448,1-1c0-0.553-0.447-1-1-1
		c-4.521,0-8.199,3.678-8.199,8.2c0,1.544,1.256,2.8,2.799,2.8h23.4c1.544,0,2.801-1.256,2.801-2.8
		C24.625-800.344,20.945-804.022,16.424-804.022z M10.856-822.384c0.716-0.424,1.479-0.638,2.269-0.638c3.032,0,5.5,3.196,5.5,7.124
		c0,0.705-0.078,1.396-0.232,2.057c-0.127,0.538,0.207,1.076,0.744,1.202c0.077,0.02,0.153,0.026,0.229,0.026
		c0.454,0,0.864-0.312,0.973-0.771c0.188-0.811,0.286-1.654,0.286-2.514c0-5.031-3.363-9.125-7.5-9.125
		c-1.137,0-2.272,0.317-3.286,0.917c-0.476,0.281-0.633,0.895-0.352,1.37C9.768-822.261,10.383-822.103,10.856-822.384z
		 M19.625-808.023c-0.553,0-1,0.448-1,1.001c0,0.552,0.447,0.999,1,0.999c3.419,0,6,2.849,6,6.268c0,0.114-0.021,0.226-0.068,0.326
		c-0.224,0.505,0.004,1.097,0.508,1.32c0.133,0.059,0.271,0.086,0.406,0.086c0.383,0,0.748-0.221,0.914-0.594
		c0.159-0.359,0.24-0.742,0.24-1.14C27.625-804.277,24.146-808.023,19.625-808.023z"/>
</g>
<path fill="#302B2A" d="M37.375-812.953h-6v-6c0-0.553-0.447-1-1-1s-1,0.447-1,1v6h-6c-0.553,0-1,0.447-1,1c0,0.552,0.447,1,1,1h6v6
	c0,0.552,0.447,1,1,1s1-0.448,1-1v-6h6c0.553,0,1-0.448,1-1C38.375-812.505,37.928-812.953,37.375-812.953z"/>
<path fill="#302B2A" d="M24,866.219h-6v-6c0-0.551-0.447-1-1-1c-0.553,0-1,0.449-1,1v6h-6c-0.553,0-1,0.449-1,1c0,0.553,0.447,1,1,1
	h6v6c0,0.553,0.447,1,1,1c0.553,0,1-0.447,1-1v-6h6c0.553,0,1-0.447,1-1C25,866.668,24.553,866.219,24,866.219z"/>
<path fill="#302B2A" d="M17,884.219c-9.374,0-17-7.626-17-17s7.626-17,17-17s17,7.626,17,17S26.374,884.219,17,884.219z M17,852.219
	c-8.271,0-15,6.729-15,15s6.729,15,15,15c8.271,0,15-6.729,15-15S25.271,852.219,17,852.219z"/>
<path fill="#302B2A" d="M12.313-20.897c-0.256,0-0.512-0.098-0.707-0.293c-0.391-0.391-0.391-1.023,0-1.414l8.667-8.668
	l-8.668-8.668c-0.391-0.391-0.391-1.023,0-1.414s1.023-0.391,1.414,0l9.375,9.375c0.391,0.391,0.391,1.023,0,1.414L13.02-21.19
	C12.825-20.995,12.569-20.897,12.313-20.897z"/>
</svg>
