<?xml version="1.0" encoding="utf-8"?>
<!-- Generator: Adobe Illustrator 16.0.0, SVG Export Plug-In . SVG Version: 6.00 Build 0)  -->
<!DOCTYPE svg PUBLIC "-//W3C//DTD SVG 1.1//EN" "http://www.w3.org/Graphics/SVG/1.1/DTD/svg11.dtd">
<svg version="1.1" id="Layer_1" xmlns="http://www.w3.org/2000/svg" xmlns:xlink="http://www.w3.org/1999/xlink" x="0px" y="0px"
	 width="149.893px" height="45.546px" viewBox="0 0 149.893 45.546" enable-background="new 0 0 149.893 45.546"
	 xml:space="preserve">
<g>
	<path fill="#FFFFFF" d="M130.268,41.472c0.247,0.086,0.794-0.117,0.481,0.503c-0.306-0.079-0.76,0.22-0.889-0.272
		C129.788,41.421,130.088,41.48,130.268,41.472z"/>
	<g>
		<path fill="#FFFFFF" d="M149.606,5.289c-0.229-0.147-0.246-0.154-0.165-0.317c0.438-0.885,0.224-1.896-0.244-2.492
			c-0.511-0.651-1.045-1.724-2.21-1.49c-0.484,0.098-0.806,0.021-1.014-0.377c-0.236-0.452-0.382-0.931-0.98-0.332
			c-0.369,0.37-0.956-0.314-1.331,0.21c-0.032,0.044-0.044,0.11-0.046,0.167c-0.015,0.486-0.245,0.662-0.671,0.505
			c-0.169-0.063-0.276-0.314-0.548-0.145c0.076,0.19,0.103,0.452,0.247,0.572c0.186,0.154,0.592,0.15,0.519,0.478
			c-0.094,0.419-0.4,0.144-0.646,0.111c-0.104-0.014-0.303,0.144-0.341,0.261c-0.089,0.284,0.184,0.152,0.287,0.177
			c0.236,0.055,0.416,0.151,0.469,0.292c-0.771,0.852-1.736,1.454-2.088,2.581c-0.233-0.04-0.337-0.713-0.632-0.204
			c-0.114,0.199-0.842,0.617-0.04,0.942c-0.023,0.577-0.664,0.585-0.901,0.989c-1.656,2.803-3.052,5.721-3.914,8.869
			c-0.565,2.069-0.488,4.244-0.946,6.33c-0.338,1.539-0.071,3.093-0.287,4.656c-0.233,1.688,0.33,3.481-0.118,5.227
			c-0.005,0.002-0.023,0.006-0.023,0.006c0.01,0.027,0.01,0.027,0.015,0.041c-0.085,0.395-0.264,0.794,0.035,1.213
			c0.252-0.453,0.696-0.88-0.021-1.236c-0.002-0.004-0.002-0.018-0.003-0.018c0-0.002,0-0.004,0.001-0.006
			c0.585-0.041,0.444-0.867,1.03-0.916c0.216,0.146-0.107,0.545,0.317,0.701c-0.169-1.25,0.953-1.724,1.438-2.602
			c0.282,0.221-0.269,0.6,0.177,0.688c0.396,0.08,0.211-0.311,0.311-0.477c0.418-0.693-0.02-1.633,0.855-2.279
			c0.428-0.313,0.363-1.289,0.792-1.858c0.066-0.089,0.086-0.444,0.188-0.244c0.594,1.149,0.157-0.574,0.449-0.149
			c0.092-1.095,1.01-1.896,1.061-2.999c0.019-0.368,0.252-0.346,0.487-0.335c0.346,0.016,0.411-0.151,0.511-0.473
			c0.521-1.694,1.394-3.243,2.092-4.861c1.627-3.766,3.322-7.47,6.028-10.609C150.04,5.541,149.84,5.44,149.606,5.289z"/>
		<path fill="#FFFFFF" d="M138.256,41.518c-1.568-0.714-2.651-2.321-4.528-2.435c-0.292-0.02-0.418-0.232-0.499-0.443
			c-0.367-0.951-1.114-0.273-1.239-0.072c-0.371,0.596-0.656,1.242-1.192,1.721c-0.26,0.23,0.479,0.787-0.05,0.646
			c-0.838-0.223-0.246,0.454-0.479,0.538c0.088,0.237,0.408,0.251,0.481,0.503c0.431,0.253-0.289,0.54,0.067,0.913
			c0.446,0.466,1.247,1.082,1.459,1.112c1.126,0.162,1.561,1.86,3.049,1.277c0.239-0.094,1.19,0.213,1.813,0.268
			c0.196-0.319-0.436-0.354-0.187-0.668c0.365,0.423,0.882-0.396,1.179,0.107c0.245,0.417,0.245,0.467,0.574,0.133
			C139.386,44.426,139.161,41.929,138.256,41.518z"/>
	</g>
	<g>
		<path fill="#FFFFFF" d="M106.088,9.294c-0.02-0.013,0.046-0.141,0.021-0.167c-0.304-0.324-0.597-0.88-0.932-0.908
			c-0.853-0.071-1.679-0.292-2.577-0.214c-1.37,0.119-2.693,0.48-4.04,0.608c-3.398,0.322-6.528,1.185-9.194,3.455
			c-1.612,1.373-2.148,2.795-1.372,4.695c0.759,1.856,2.287,2.893,4.158,3.384c1.584,0.415,3.287,0.331,4.902,1.166
			c-1.403,1.005-2.713,2.03-4.106,2.922c-1.814,1.161-3.649,2.31-5.566,3.286c-1.123,0.572-1.06,1.284-0.747,2.203
			c0.082,0.24,0.302,0.477,0.285,0.703c-0.083,1.22,0.666,1.701,1.67,1.966c0.205,0.054,0.486,0.127,0.32,0.321
			c-0.38,0.449-0.147,0.549,0.192,0.324c0.429-0.281,0.697,0.045,1.038,0.071c-0.403,0.828,0.222,0.343,0.461,0.365
			c1.776,0.169,3.05-1.183,4.653-1.58c0.538-0.134,1.088,0.063,1.66-0.313c1.253-0.83,2.415-1.767,3.622-2.644
			c2.274-1.653,2.875-3.955,2.743-6.434c-0.1-1.886-0.703-3.774-2.097-5.243c-0.18-0.292-0.251-0.691-0.711-0.695l0,0
			c-0.347-0.343-0.288-1.428-1.23-0.668c-0.809-0.876-2.099-0.513-3.137-1.186c2.563-0.864,5.076-1.167,7.634-1.292
			c0.694-0.034,1.407,0.168,2.117-0.542c0.596-0.595,0.681-1.315,1.019-1.935C107.235,10.291,106.833,9.784,106.088,9.294z"/>
		<path fill="#FFFFFF" d="M104.7,6.967c-0.073-0.01-0.151,0.019-0.228,0.03c0.188,0.284,0.366,0.571,0.535,0.881
			C104.848,7.593,105.325,7.056,104.7,6.967z"/>
	</g>
	<g>
		<path fill="#FFFFFF" d="M66.849,39.691c0.145-0.234,0.451,0.021,0.502-0.182c-1.443-0.771-3.003-0.6-4.544-0.694
			c-1.49-0.093-2.933-0.722-3.678-2.015c-1.131-1.963-1.971-4.092-2.708-6.248c-0.467-1.367-0.348-2.865-1.166-4.191
			c-0.351-0.568-1.066-1.063-0.986-1.881c0.099-1.004-0.32-1.239-1.441-0.607c0.486-0.475,0.734-0.724,0.508-1.096
			c-0.3-0.492-0.3-0.844,0.263-1.198c0.723-0.456,1.359-1.043,2.054-1.547c2.385-1.73,4.676-3.537,5.818-6.406
			c0.275-0.693,0.044-1.443,0.344-2.114c0.274-0.617-0.682-1.051-0.226-1.711c0.374-0.541-0.604-0.488-0.489-0.988
			c0.025-0.117-0.297-0.263-0.494-0.143c-0.942,0.572-1.869,1.168-2.813,1.739c-2.27,1.375-4.188,3.228-6.396,4.689
			c-0.321,0-0.643,0-1.085,0c0.277,0.229,0.441,0.364,0.604,0.498l0,0c-0.42,0.81-1.438,0.802-2.011,1.73
			c0.063-2.08,0.758-3.788,0.764-5.591c0.537-0.492,0.229-1.194,0.439-1.792c0.46-1.315,0.443-2.71,0.335-4.109
			c-0.096-1.225-0.968-2.181-1.068-3.393c-0.001-0.014-0.403-0.388-0.617-0.072c-0.133,0.197-0.237,0.517-0.464,0.461
			c-1.288-0.315-1.815,0.635-2.513,1.378c-0.192,0.205-0.769,0.085-0.65,0.604c0.353,1.541-0.979,2.775-0.747,4.285
			c0.049,0.312-0.183,0.395-0.382,0.526c-0.253,0.168-0.462,0.566-0.164,0.648c0.648,0.178,0.289,0.54,0.146,0.677
			c-0.656,0.62-0.572,1.448-0.792,2.211c-1.043,3.622-1.887,7.288-2.701,10.965c-0.172,0.777-0.01,1.519-0.12,2.275
			c-0.162,1.115,1.03,0.9,1.516,1.395c0.108,0.109,0.25,0.188,0.375,0.279c0.515,1.006,1.578,1.322,2.462,1.748
			c0.895,0.434,1.907,0.51,2.613-0.683c0.553-0.935,1.392-1.698,2.103-2.538c0.096,2.59,1.113,4.859,2.03,7.141
			c1.03,2.563,2.417,4.98,4.357,6.928c1.563,1.566,3.084,3.23,5.688,3.474c2.586,0.241,4.255-0.752,5.673-2.646
			c0.297-0.123,0.092-0.291,0.043-0.446c0.389-0.119,0.317-0.521,0.381-0.771C67.748,39.736,67.121,39.867,66.849,39.691z"/>
		<path fill="#FFFFFF" d="M47.295,2.436c0.025-0.028-0.031-0.185-0.047-0.184c-0.407,0.012-0.819,0.004-1.198,0.297
			C46.453,2.483,46.924,2.86,47.295,2.436z"/>
	</g>
	<g>
		<path fill="#FFFFFF" d="M18.795,6.11c-0.428-1.555-1.869-0.861-2.842-1.213c-0.137-0.05-0.352-0.225-0.396-0.08
			c-0.273,0.901-1.269,0.669-1.778,1.178c-0.212,0.695-1.025,1.101-0.933,1.942c-0.527,0.344-0.487,1.328-1.397,1.24
			c-0.504,1.613-1.943,2.6-2.714,4.038c-0.141,0.263-0.098,0.738-0.632,0.698c-0.539-0.041-0.624-0.523-0.7-0.837
			c-0.249-1.021-0.486-2.063-0.544-3.108C6.708,7.266,6.299,4.661,4.652,2.405c0.615-0.76-0.003-0.692-0.481-0.716
			C3.947,1.587,3.774,1.313,3.471,1.488c-0.157,0.005-0.314,0.01-0.473,0.015C2.582,1.405,2.584,0.821,2.141,0.75
			C1.817,1.293,2.104,1.536,2.585,1.685c0.066,0.459,0.45,0.12,0.645,0.256C3.388,2.296,3.29,2.528,2.9,2.353
			C2.112,1.997,1.329,1.41,1.118,2.92C1.084,3.159,0.696,3.349,0.479,3.553C0.254,3.386,0.52,3.047,0.215,2.964
			c-0.573,0.552,0.18,0.916,0.229,1.398C0.629,6.15,0.331,7.94,0.598,9.718c0.316,2.115,0.803,4.181,1.98,5.991
			c0.57,0.876,1.317,1.873,2.273,2.102c1.425,0.341,1.023,0.929,0.598,1.711c-0.15,0.275-0.355,0.528-0.454,0.819
			c-1.359,4.014-3.278,7.851-3.85,12.116c-0.283,2.104-0.654,4.207,0.341,6.244c0.113,0.231,0.089,0.532,0.128,0.801
			c0.774-0.433,1.203,0.684,2.043,0.397c0.825-0.278,1.223-1.026,1.455-1.539c1.557-3.438,2.94-6.957,4.366-10.454
			c1.168-2.865,2.469-5.697,4.329-8.151c2.183-2.88,3.865-6.042,5.735-9.1c0.1-0.161,0.239-0.373,0.205-0.527
			C19.454,8.784,19.161,7.437,18.795,6.11z"/>
		<path fill="#FFFFFF" d="M17.326,4.611c0.188,0.062,0.291-0.039,0.276-0.219c-0.018-0.218-0.195-0.307-0.376-0.378
			c-0.192-0.052-0.29,0.041-0.276,0.221C16.968,4.452,17.142,4.551,17.326,4.611z"/>
		<path fill="#FFFFFF" d="M14.176,5.02c0.354,0.001,0.531-0.184,0.566-0.85c-0.25,0.453-0.654,0.265-0.683,0.688
			C14.055,4.911,14.134,5.02,14.176,5.02z"/>
	</g>
	<g>
		<path fill="#FFFFFF" d="M116.149,12.648c0.34-0.012,0.592-0.195,0.379-0.607c-0.053-0.192,0.403-0.522-0.179-0.561
			c-0.787-0.052,0.193,0.645-0.317,0.78C115.88,12.3,115.87,12.658,116.149,12.648z"/>
		<path fill="#FFFFFF" d="M118.092,11.984c0.272,0.053,0.544,0.106,0.977,0.191c-0.318-0.402-0.582-0.514-0.915-0.488
			c-0.158-0.232-0.363-0.317-0.548-0.069c-0.099,0.13-0.181,0.423-0.111,0.497C117.71,12.349,117.878,11.999,118.092,11.984z"/>
		<path fill="#FFFFFF" d="M116.94,10.984c0.08-0.009,0.148-0.122,0.199-0.165c-0.026-0.273-0.18-0.38-0.353-0.47
			c-0.041,0.086-0.107,0.17-0.116,0.26C116.655,10.8,116.661,11.014,116.94,10.984z"/>
		<path fill="#FFFFFF" d="M128.535,19.839c-0.58-1.576-1.623-2.886-2.362-4.374c-0.706-1.42-2.445-1.739-3.698-2.588
			c-0.294-0.199-0.583,0.445-0.999,0.272c-0.105-0.913-0.705-0.344-1.184-0.462c0.295,0.411,0.806,0.042,0.979,0.473
			c-0.839,0.273-1.628,0.84-2.327-0.4c-0.399-0.709-1.011-0.381-1.261,0.367c-0.216-0.009-0.399,0.056-0.539,0.227
			c-0.396-0.271-0.753-0.237-1.17,0.019c-0.178,0.109-0.49,0.558-0.761,0.04c0.22-0.073,0.384-0.208,0.475-0.425
			c-0.237-0.052-0.373-0.404-0.694-0.219c-0.365,0.21,0,0.418-0.012,0.626c-0.857-0.19-1.407,0.521-2.128,0.729
			c-0.548,0.188-0.724,0.701-0.991,1.133c-0.364,0.995-1.422,1.31-2.048,2.142c-2.025,2.692-3.093,5.53-2.785,8.908
			c0.104,1.139,0.792,1.946,1.198,2.914c0.858,2.041,2.495,3.104,4.407,3.827c2.242,0.85,4.624,0.541,6.854,0.16
			c1.756-0.301,3.65-0.657,5.184-1.832c1.214-0.932,1.906-2.301,2.952-3.364c0.852-0.863,1.41-1.994,1.637-3.037
			C129.629,23.273,129.152,21.515,128.535,19.839z M123.267,22.259c-0.745,0.464-0.792,1.323-1.197,1.967
			c-0.18,0.286-0.751,0.459-1.148,0.673c-2.297,1.237-4.736,1.804-7.376,1.744c-0.809-0.019-1.104-0.144-1.185-0.679
			c-0.008-0.43,0.033-0.635,0.138-0.869c0.977-2.187,2.229-4.182,3.92-5.888c0.07-0.07,0.121-0.159,0.182-0.239
			c0.604,1.027,1.729,0.562,2.567,0.744c0.735,0.16,1.709,0.461,2.514-0.077c0.672-0.449,1.029-0.114,1.301,0.475
			c0.217,0.472,0.45,0.94,0.608,1.432C123.68,21.818,123.516,22.104,123.267,22.259z"/>
	</g>
	<path fill="#FFFFFF" d="M80.652,16.191c-0.168-0.369-0.495-1.052-0.917-0.924c-1.429,0.433-1.146-0.785-1.09-1.255
		c0.104-0.862-0.982-0.877-0.894-1.601c-0.314,0.141-0.635,0.273-0.943,0.427c-0.123,0.062-0.21,0.261-0.368,0.074
		c-0.063-0.074-0.088-0.179-0.13-0.27c0.622-0.103,0.136-0.512,0.212-0.766c-0.259,0.354-0.648-0.329-1.087,0.258
		c-0.385,0.514-1.562,0.915-2.128,0.695c-0.748-0.289-1.182,0.041-1.709,0.212c-1.196,0.389-2.042,1.26-2.794,2.23
		c-0.519-0.068-0.901,0.063-0.972,0.658c-0.397,0.331-1.168,0.371-0.936,1.196c-0.436,0.159-0.544,0.498-0.51,0.918
		c-0.872,0.737-1.731,1.637-2.279,2.504c-0.668,1.058-1.194,2.396-1.437,3.744c-0.063,0.358-0.224,0.717-0.008,1.011
		c0.775,1.055,0.923,2.396,1.677,3.491c0.263,0.379,0.723,0.433,0.894,0.924c0.433,1.24,1.285,2.229,2.461,2.826
		c1.193,0.607,2.438,1.188,3.794,1.271c1.137,0.072,2.372,0.512,3.402-0.143c0.775-0.492,1.571-0.939,2.381-1.356
		c2.292-1.185,3.962-2.905,4.704-5.405C83.09,23.156,82.209,19.618,80.652,16.191z M76.277,23.988
		c-0.952,1.168-1.925,2.246-3.857,2.48c-0.712,0.348-1.762,0.066-2.802-0.031c-1.068-0.1-1.354-0.799-0.659-1.646
		c1.997-2.43,3.995-4.86,6.923-6.277c0.559-0.27,0.957-0.249,1.05,0.374C77.189,20.637,77.57,22.402,76.277,23.988z"/>
	<g>
		<path fill="#FFFFFF" d="M30.919,11.875c-0.001-0.071-0.156-0.21-0.182-0.198c-0.165,0.082-0.314,0.197-0.468,0.301
			c0.071,0.055,0.144,0.109,0.195,0.148C30.682,12.104,30.923,12.172,30.919,11.875z"/>
		<path fill="#FFFFFF" d="M37.124,17.539c-0.217-0.431-0.565-0.763-1.133-0.635c-0.795-1.241-1.057-1.304-2.106-0.448
			c-0.691,0.564-0.982-0.183-1.435-0.409c0.361-0.561-0.201-1.141,0.136-1.803c0.391-0.767-0.758-0.521-1-0.973
			c-0.061-0.113-0.348-0.256-0.313-0.043c0.17,1.023-0.689,0.558-1.058,0.787c0.076-0.147,0.153-0.293,0.229-0.439
			c0.638,0.159,0.159-0.461,0.392-0.585c-0.279-0.401-0.407,0.122-0.625,0.104c-0.407-0.467-0.54-0.033-0.726,0.222
			c-0.025,0.074-0.021,0.14,0.002,0.201c-0.005,0-0.011,0-0.016,0c0.007-0.067,0.011-0.133,0.014-0.2
			c-0.073,0.053-0.146,0.105-0.219,0.158l0,0c-0.283-0.046-0.566-0.092-0.849-0.138l0,0c-0.398,0.064-0.903-0.175-1.125,0.394l0,0
			l0,0c-2.032,0.548-3.75,1.82-5.167,3.175c-1.791,1.713-3.644,3.528-4.637,5.94c-0.439,1.064-0.791,2.128-0.545,3.304
			c0.137-0.453,0.274-0.907,0.411-1.36c0.176,0.705-0.111,1.744,0.236,2.041c0.646,0.553,0.669,1.235,0.771,1.83
			c0.198,1.162,0.712,2.082,1.499,2.899c0.341,1.25,1.479,1.423,2.452,1.644c2.518,0.57,5.051,0.25,7.543-0.229
			c3.619-0.697,7.766-4.616,8.263-8.286C38.459,22.178,38.266,19.804,37.124,17.539z M33.453,21.895
			c-0.152,1.261-0.735,2.365-2.073,2.614c-0.678,0.127-0.524,0.711-0.934,0.969c-2.01,1.27-4.237,1.479-6.521,1.518
			c-0.544,0.01-1.046-0.178-1.314-0.582c-0.308-0.463,0.148-0.871,0.416-1.225c0.702-0.932,1.442-1.833,2.167-2.747
			c1.119-1.04,2.238-2.079,3.356-3.118c1.01-0.256,1.757-0.968,2.609-1.496c0.153,0.523,0.9,0.651,0.752,1.475
			c-0.091,0.513,0.449,0.461,0.69-0.03C33.731,19.871,33.569,20.927,33.453,21.895z"/>
	</g>
</g>
</svg>
